<?xml version="1.0" encoding="UTF-8" standalone="no"?>
<!-- Created with Inkscape (http://www.inkscape.org/) -->

<svg
   xmlns:dc="http://purl.org/dc/elements/1.1/"
   xmlns:cc="http://creativecommons.org/ns#"
   xmlns:rdf="http://www.w3.org/1999/02/22-rdf-syntax-ns#"
   xmlns:svg="http://www.w3.org/2000/svg"
   xmlns="http://www.w3.org/2000/svg"
   xmlns:sodipodi="http://sodipodi.sourceforge.net/DTD/sodipodi-0.dtd"
   xmlns:inkscape="http://www.inkscape.org/namespaces/inkscape"
   version="1.1"
   id="svg5010"
   xml:space="preserve"
   width="447.26266"
   height="248.56267"
   viewBox="0 0 447.26266 248.56267"
   sodipodi:docname="example_impulse.pdf"><metadata
     id="metadata5016"><rdf:RDF><cc:Work
         rdf:about=""><dc:format>image/svg+xml</dc:format><dc:type
           rdf:resource="http://purl.org/dc/dcmitype/StillImage" /></cc:Work></rdf:RDF></metadata><defs
     id="defs5014"><clipPath
       clipPathUnits="userSpaceOnUse"
       id="clipPath5058"><path
         d="M -24.90804,-154.54187 H 273.97345 V 282.53687 H -24.90804"
         id="path5056"
         inkscape:connector-curvature="0" /></clipPath><clipPath
       clipPathUnits="userSpaceOnUse"
       id="clipPath5070"><path
         d="M -166.63998,-12.80026 V 140.79523 H 415.7054 V -12.80026"
         id="path5068"
         inkscape:connector-curvature="0" /></clipPath><clipPath
       clipPathUnits="userSpaceOnUse"
       id="clipPath5358"><path
         d="M -24.90804,-12.80026 H 273.97345 V 140.79523 H -24.90804 Z"
         id="path5356"
         inkscape:connector-curvature="0" /></clipPath></defs><sodipodi:namedview
     pagecolor="#ffffff"
     bordercolor="#666666"
     borderopacity="1"
     objecttolerance="10"
     gridtolerance="10"
     guidetolerance="10"
     inkscape:pageopacity="0"
     inkscape:pageshadow="2"
     inkscape:window-width="1920"
     inkscape:window-height="1017"
     id="namedview5012"
     showgrid="false"
     inkscape:zoom="3.3895071"
     inkscape:cx="231.9007"
     inkscape:cy="142.19969"
     inkscape:window-x="-8"
     inkscape:window-y="-8"
     inkscape:window-maximized="1"
     inkscape:current-layer="g5022" /><g
     id="g5018"
     inkscape:groupmode="layer"
     inkscape:label="example_impulse"
     transform="matrix(1.3333333,0,0,-1.3333333,0,248.56267)"><g
       id="g5020"
       transform="translate(36.37,28.550458)"><g
         id="g5022"><g
           id="g5024"><g
             id="g5026" /><g
             id="g5028" /><g
             id="g5030"><g
               id="g5032" /></g><g
             id="g5034" /><g
             id="g5036" /><g
             id="g5038" /><g
             id="g5040" /><g
             id="g5042"
             transform="translate(-36.37,-28.993)"><g
               id="g5044"
               transform="translate(61.278,41.793)"><g
                 id="g5046"><g
                   id="g5048"><g
                     id="g5050"><g
                       id="g5052"><g
                         id="g5054"
                         clip-path="url(#clipPath5058)"><g
                           id="g5060"><path
                             d="m -16.60435,-12.80026 v 4.25207 m 33.2087,-4.25207 v 4.25207 m 33.20873,-4.25207 v 4.25207 m 33.20871,-4.25207 v 4.25207 m 33.20872,-4.25207 v 4.25207 m 33.20873,-4.25207 v 4.25207 m 33.20872,-4.25207 v 4.25207 m 33.20873,-4.25207 v 4.25207 m 33.20871,-4.25207 v 4.25207 M -16.60435,140.79523 v -4.25206 m 33.2087,4.25206 v -4.25206 m 33.20873,4.25206 v -4.25206 m 33.20871,4.25206 v -4.25206 m 33.20872,4.25206 v -4.25206 m 33.20873,4.25206 v -4.25206 m 33.20872,4.25206 v -4.25206 m 33.20873,4.25206 v -4.25206 m 33.20871,4.25206 v -4.25206"
                             style="fill:none;stroke:#808080;stroke-width:0.19925;stroke-linecap:butt;stroke-linejoin:miter;stroke-miterlimit:10;stroke-dasharray:none;stroke-opacity:1"
                             id="path5062"
                             inkscape:connector-curvature="0" /></g></g></g><g
                       id="g5064"><g
                         id="g5066"
                         clip-path="url(#clipPath5070)"><g
                           id="g5072"><path
                             d="m -24.90804,0 h 4.25176 m -4.25176,34.5252 h 4.25176 m -4.25176,34.52522 h 4.25176 m -4.25176,34.52522 h 4.25176 m -4.25176,34.52521 h 4.25176 M 273.97345,0 h -4.25177 m 4.25177,34.5252 h -4.25177 m 4.25177,34.52522 h -4.25177 m 4.25177,34.52522 h -4.25177 m 4.25177,34.52521 h -4.25177"
                             style="fill:none;stroke:#808080;stroke-width:0.19925;stroke-linecap:butt;stroke-linejoin:miter;stroke-miterlimit:10;stroke-dasharray:none;stroke-opacity:1"
                             id="path5074"
                             inkscape:connector-curvature="0" /></g></g></g><path
                       d="M -24.90804,-12.80026 V 140.79523 H 273.97345 V -12.80026 Z"
                       style="fill:none;stroke:#000000;stroke-width:0.3985;stroke-linecap:butt;stroke-linejoin:miter;stroke-miterlimit:10;stroke-dasharray:none;stroke-opacity:1"
                       id="path5076"
                       inkscape:connector-curvature="0" /><g
                       id="g5078"><g
                         id="g5080"
                         transform="translate(-22.969,-22.739)"><g
                           id="g5082"><g
                             id="g5084"
                             transform="translate(-38.309,-19.054)"><text
                               transform="matrix(1,0,0,-1,38.309,19.054)"
                               style="font-variant:normal;font-weight:normal;font-size:9.96259975px;font-family:CMSY10;-inkscape-font-specification:CMSY10;writing-mode:lr-tb;fill:#000000;fill-opacity:1;fill-rule:nonzero;stroke:none"
                               id="text5088"><tspan
                                 x="0"
                                 y="0"
                                 id="tspan5086">−</tspan></text>
<text
                               transform="matrix(1,0,0,-1,46.057,19.054)"
                               style="font-variant:normal;font-weight:normal;font-size:9.96259975px;font-family:CMR10;-inkscape-font-specification:CMR10;writing-mode:lr-tb;fill:#000000;fill-opacity:1;fill-rule:nonzero;stroke:none"
                               id="text5092"><tspan
                                 x="0"
                                 y="0"
                                 id="tspan5090">2</tspan></text>
<g
                               id="g5094"
                               transform="translate(38.309,19.054)" /></g></g><g
                           id="g5096"
                           transform="translate(22.969,22.739)" /></g></g><g
                       id="g5098"><g
                         id="g5100"
                         transform="translate(10.239,-22.739)"><g
                           id="g5102"><g
                             id="g5104"
                             transform="translate(-71.517,-19.054)"><text
                               transform="matrix(1,0,0,-1,71.517,19.054)"
                               style="font-variant:normal;font-weight:normal;font-size:9.96259975px;font-family:CMSY10;-inkscape-font-specification:CMSY10;writing-mode:lr-tb;fill:#000000;fill-opacity:1;fill-rule:nonzero;stroke:none"
                               id="text5108"><tspan
                                 x="0"
                                 y="0"
                                 id="tspan5106">−</tspan></text>
<text
                               transform="matrix(1,0,0,-1,79.266,19.054)"
                               style="font-variant:normal;font-weight:normal;font-size:9.96259975px;font-family:CMR10;-inkscape-font-specification:CMR10;writing-mode:lr-tb;fill:#000000;fill-opacity:1;fill-rule:nonzero;stroke:none"
                               id="text5112"><tspan
                                 x="0"
                                 y="0"
                                 id="tspan5110">1</tspan></text>
<g
                               id="g5114"
                               transform="translate(71.517,19.054)" /></g></g><g
                           id="g5116"
                           transform="translate(-10.239,22.739)" /></g></g><g
                       id="g5118"><g
                         id="g5120"
                         transform="translate(47.322,-22.739)"><g
                           id="g5122"><g
                             id="g5124"
                             transform="translate(-108.6,-19.054)"><text
                               transform="matrix(1,0,0,-1,108.6,19.054)"
                               style="font-variant:normal;font-weight:normal;font-size:9.96259975px;font-family:CMR10;-inkscape-font-specification:CMR10;writing-mode:lr-tb;fill:#000000;fill-opacity:1;fill-rule:nonzero;stroke:none"
                               id="text5128"><tspan
                                 x="0"
                                 y="0"
                                 id="tspan5126">0</tspan></text>
<g
                               id="g5130"
                               transform="translate(108.6,19.054)" /></g></g><g
                           id="g5132"
                           transform="translate(-47.322,22.739)" /></g></g><g
                       id="g5134"><g
                         id="g5136"
                         transform="translate(80.53,-22.739)"><g
                           id="g5138"><g
                             id="g5140"
                             transform="translate(-141.808,-19.054)"><text
                               transform="matrix(1,0,0,-1,141.808,19.054)"
                               style="font-variant:normal;font-weight:normal;font-size:9.96259975px;font-family:CMR10;-inkscape-font-specification:CMR10;writing-mode:lr-tb;fill:#000000;fill-opacity:1;fill-rule:nonzero;stroke:none"
                               id="text5144"><tspan
                                 x="0"
                                 y="0"
                                 id="tspan5142">1</tspan></text>
<g
                               id="g5146"
                               transform="translate(141.808,19.054)" /></g></g><g
                           id="g5148"
                           transform="translate(-80.53,22.739)" /></g></g><g
                       id="g5150"><g
                         id="g5152"
                         transform="translate(113.738,-22.739)"><g
                           id="g5154"><g
                             id="g5156"
                             transform="translate(-175.016,-19.054)"><text
                               transform="matrix(1,0,0,-1,175.016,19.054)"
                               style="font-variant:normal;font-weight:normal;font-size:9.96259975px;font-family:CMR10;-inkscape-font-specification:CMR10;writing-mode:lr-tb;fill:#000000;fill-opacity:1;fill-rule:nonzero;stroke:none"
                               id="text5160"><tspan
                                 x="0"
                                 y="0"
                                 id="tspan5158">2</tspan></text>
<g
                               id="g5162"
                               transform="translate(175.016,19.054)" /></g></g><g
                           id="g5164"
                           transform="translate(-113.738,22.739)" /></g></g><g
                       id="g5166"><g
                         id="g5168"
                         transform="translate(146.946,-22.739)"><g
                           id="g5170"><g
                             id="g5172"
                             transform="translate(-208.224,-19.054)"><text
                               transform="matrix(1,0,0,-1,208.224,19.054)"
                               style="font-variant:normal;font-weight:normal;font-size:9.96259975px;font-family:CMR10;-inkscape-font-specification:CMR10;writing-mode:lr-tb;fill:#000000;fill-opacity:1;fill-rule:nonzero;stroke:none"
                               id="text5176"><tspan
                                 x="0"
                                 y="0"
                                 id="tspan5174">3</tspan></text>
<g
                               id="g5178"
                               transform="translate(208.224,19.054)" /></g></g><g
                           id="g5180"
                           transform="translate(-146.946,22.739)" /></g></g><g
                       id="g5182"><g
                         id="g5184"
                         transform="translate(180.155,-22.739)"><g
                           id="g5186"><g
                             id="g5188"
                             transform="translate(-241.433,-19.054)"><text
                               transform="matrix(1,0,0,-1,241.433,19.054)"
                               style="font-variant:normal;font-weight:normal;font-size:9.96259975px;font-family:CMR10;-inkscape-font-specification:CMR10;writing-mode:lr-tb;fill:#000000;fill-opacity:1;fill-rule:nonzero;stroke:none"
                               id="text5192"><tspan
                                 x="0"
                                 y="0"
                                 id="tspan5190">4</tspan></text>
<g
                               id="g5194"
                               transform="translate(241.433,19.054)" /></g></g><g
                           id="g5196"
                           transform="translate(-180.155,22.739)" /></g></g><g
                       id="g5198"><g
                         id="g5200"
                         transform="translate(213.363,-22.739)"><g
                           id="g5202"><g
                             id="g5204"
                             transform="translate(-274.641,-19.054)"><text
                               transform="matrix(1,0,0,-1,274.641,19.054)"
                               style="font-variant:normal;font-weight:normal;font-size:9.96259975px;font-family:CMR10;-inkscape-font-specification:CMR10;writing-mode:lr-tb;fill:#000000;fill-opacity:1;fill-rule:nonzero;stroke:none"
                               id="text5208"><tspan
                                 x="0"
                                 y="0"
                                 id="tspan5206">5</tspan></text>
<g
                               id="g5210"
                               transform="translate(274.641,19.054)" /></g></g><g
                           id="g5212"
                           transform="translate(-213.363,22.739)" /></g></g><g
                       id="g5214"><g
                         id="g5216"
                         transform="translate(246.571,-22.739)"><g
                           id="g5218"><g
                             id="g5220"
                             transform="translate(-307.849,-19.054)"><text
                               transform="matrix(1,0,0,-1,307.849,19.054)"
                               style="font-variant:normal;font-weight:normal;font-size:9.96259975px;font-family:CMR10;-inkscape-font-specification:CMR10;writing-mode:lr-tb;fill:#000000;fill-opacity:1;fill-rule:nonzero;stroke:none"
                               id="text5224"><tspan
                                 x="0"
                                 y="0"
                                 id="tspan5222">6</tspan></text>
<g
                               id="g5226"
                               transform="translate(307.849,19.054)" /></g></g><g
                           id="g5228"
                           transform="translate(-246.571,22.739)" /></g></g><g
                       id="g5230"><g
                         id="g5232"
                         transform="translate(232.367,-40.18)"><g
                           id="g5234"><g
                             id="g5236"
                             transform="translate(-293.645,-1.613)"><text
                               transform="matrix(1,0,0,-1,293.645,1.613)"
                               style="font-variant:normal;font-weight:normal;font-size:9.96259975px;font-family:CMSY10;-inkscape-font-specification:CMSY10;writing-mode:lr-tb;fill:#000000;fill-opacity:1;fill-rule:nonzero;stroke:none"
                               id="text5240"><tspan
                                 x="0"
                                 y="0"
                                 id="tspan5238">·</tspan></text>
<text
                               transform="matrix(1,0,0,-1,296.412,1.613)"
                               style="font-variant:normal;font-weight:normal;font-size:9.96259975px;font-family:CMR10;-inkscape-font-specification:CMR10;writing-mode:lr-tb;fill:#000000;fill-opacity:1;fill-rule:nonzero;stroke:none"
                               id="text5244"><tspan
                                 x="0 4.9812999"
                                 y="0"
                                 sodipodi:role="line"
                                 id="tspan5242">10</tspan></text>
<text
                               transform="matrix(1,0,0,-1,306.375,5.229)"
                               style="font-variant:normal;font-weight:normal;font-size:6.97380018px;font-family:CMSY7;-inkscape-font-specification:CMSY7;writing-mode:lr-tb;fill:#000000;fill-opacity:1;fill-rule:nonzero;stroke:none"
                               id="text5248"><tspan
                                 x="0"
                                 y="0"
                                 id="tspan5246">−</tspan></text>
<text
                               transform="matrix(1,0,0,-1,312.602,5.229)"
                               style="font-variant:normal;font-weight:normal;font-size:6.97380018px;font-family:CMR7;-inkscape-font-specification:CMR7;writing-mode:lr-tb;fill:#000000;fill-opacity:1;fill-rule:nonzero;stroke:none"
                               id="text5252"><tspan
                                 x="0"
                                 y="0"
                                 id="tspan5250">7</tspan></text>
<g
                               id="g5254"
                               transform="translate(293.645,1.613)" /></g></g><g
                           id="g5256"
                           transform="translate(-232.367,40.18)" /></g></g><g
                       id="g5258"><g
                         id="g5260"
                         transform="translate(-33.408,-3.21)"><g
                           id="g5262"><g
                             id="g5264"
                             transform="translate(-27.87,-38.583)"><text
                               transform="matrix(1,0,0,-1,27.87,38.583)"
                               style="font-variant:normal;font-weight:normal;font-size:9.96259975px;font-family:CMR10;-inkscape-font-specification:CMR10;writing-mode:lr-tb;fill:#000000;fill-opacity:1;fill-rule:nonzero;stroke:none"
                               id="text5268"><tspan
                                 x="0"
                                 y="0"
                                 id="tspan5266">0</tspan></text>
<g
                               id="g5270"
                               transform="translate(27.87,38.583)" /></g></g><g
                           id="g5272"
                           transform="translate(33.408,3.21)" /></g></g><g
                       id="g5274"><g
                         id="g5276"
                         transform="translate(-41.157,31.315)"><g
                           id="g5278"><g
                             id="g5280"
                             transform="translate(-20.121,-73.108)"><text
                               transform="matrix(1,0,0,-1,20.121,73.108)"
                               style="font-variant:normal;font-weight:normal;font-size:9.96259975px;font-family:CMR10;-inkscape-font-specification:CMR10;writing-mode:lr-tb;fill:#000000;fill-opacity:1;fill-rule:nonzero;stroke:none"
                               id="text5284"><tspan
                                 x="0"
                                 y="0"
                                 id="tspan5282">0</tspan></text>
<text
                               transform="matrix(1,0,0,-1,25.102,73.108)"
                               style="font-variant:normal;font-weight:normal;font-size:9.96259975px;font-family:CMMI10;-inkscape-font-specification:CMMI10;writing-mode:lr-tb;fill:#000000;fill-opacity:1;fill-rule:nonzero;stroke:none"
                               id="text5288"><tspan
                                 x="0"
                                 y="0"
                                 id="tspan5286">.</tspan></text>
<text
                               transform="matrix(1,0,0,-1,27.87,73.108)"
                               style="font-variant:normal;font-weight:normal;font-size:9.96259975px;font-family:CMR10;-inkscape-font-specification:CMR10;writing-mode:lr-tb;fill:#000000;fill-opacity:1;fill-rule:nonzero;stroke:none"
                               id="text5292"><tspan
                                 x="0"
                                 y="0"
                                 id="tspan5290">5</tspan></text>
<g
                               id="g5294"
                               transform="translate(20.121,73.108)" /></g></g><g
                           id="g5296"
                           transform="translate(41.157,-31.315)" /></g></g><g
                       id="g5298"><g
                         id="g5300"
                         transform="translate(-33.408,65.839)"><g
                           id="g5302"><g
                             id="g5304"
                             transform="translate(-27.87,-107.632)"><text
                               transform="matrix(1,0,0,-1,27.87,107.632)"
                               style="font-variant:normal;font-weight:normal;font-size:9.96259975px;font-family:CMR10;-inkscape-font-specification:CMR10;writing-mode:lr-tb;fill:#000000;fill-opacity:1;fill-rule:nonzero;stroke:none"
                               id="text5308"><tspan
                                 x="0"
                                 y="0"
                                 id="tspan5306">1</tspan></text>
<g
                               id="g5310"
                               transform="translate(27.87,107.632)" /></g></g><g
                           id="g5312"
                           transform="translate(33.408,-65.839)" /></g></g><g
                       id="g5314"><g
                         id="g5316"
                         transform="translate(-41.157,100.364)"><g
                           id="g5318"><g
                             id="g5320"
                             transform="translate(-20.121,-142.157)"><text
                               transform="matrix(1,0,0,-1,20.121,142.157)"
                               style="font-variant:normal;font-weight:normal;font-size:9.96259975px;font-family:CMR10;-inkscape-font-specification:CMR10;writing-mode:lr-tb;fill:#000000;fill-opacity:1;fill-rule:nonzero;stroke:none"
                               id="text5324"><tspan
                                 x="0"
                                 y="0"
                                 id="tspan5322">1</tspan></text>
<text
                               transform="matrix(1,0,0,-1,25.102,142.157)"
                               style="font-variant:normal;font-weight:normal;font-size:9.96259975px;font-family:CMMI10;-inkscape-font-specification:CMMI10;writing-mode:lr-tb;fill:#000000;fill-opacity:1;fill-rule:nonzero;stroke:none"
                               id="text5328"><tspan
                                 x="0"
                                 y="0"
                                 id="tspan5326">.</tspan></text>
<text
                               transform="matrix(1,0,0,-1,27.87,142.157)"
                               style="font-variant:normal;font-weight:normal;font-size:9.96259975px;font-family:CMR10;-inkscape-font-specification:CMR10;writing-mode:lr-tb;fill:#000000;fill-opacity:1;fill-rule:nonzero;stroke:none"
                               id="text5332"><tspan
                                 x="0"
                                 y="0"
                                 id="tspan5330">5</tspan></text>
<g
                               id="g5334"
                               transform="translate(20.121,142.157)" /></g></g><g
                           id="g5336"
                           transform="translate(41.157,-100.364)" /></g></g><g
                       id="g5338"><g
                         id="g5340"
                         transform="translate(-33.408,134.889)"><g
                           id="g5342"><g
                             id="g5344"
                             transform="translate(-27.87,-176.682)"><text
                               transform="matrix(1,0,0,-1,27.87,176.682)"
                               style="font-variant:normal;font-weight:normal;font-size:9.96259975px;font-family:CMR10;-inkscape-font-specification:CMR10;writing-mode:lr-tb;fill:#000000;fill-opacity:1;fill-rule:nonzero;stroke:none"
                               id="text5348"><tspan
                                 x="0"
                                 y="0"
                                 id="tspan5346">2</tspan></text>
<g
                               id="g5350"
                               transform="translate(27.87,176.682)" /></g></g><g
                           id="g5352"
                           transform="translate(33.408,-134.889)" /></g></g><g
                       id="g5354"
                       clip-path="url(#clipPath5358)"><g
                         id="g5360"><path
                           d="m 0,0 h 0.97672 0.97673 0.97673 0.97672 0.97672 0.97673 0.97673 0.97673 0.97672 0.97671 0.97673 0.97673 0.97673 0.97673 0.97672 0.97673 0.97674 0.97674 0.97671 0.97673 0.97673 0.97673 0.97673 0.97672 0.97673 0.97671 0.97673 l 0.97673,2e-5 0.97672,6e-5 0.97673,1.8e-4 0.97673,5e-4 0.97673,0.00132 0.97673,0.00326 0.97673,0.00775 0.97673,0.01751 0.97673,0.03768 0.97673,0.07733 0.97672,0.15129 0.97673,0.28202 0.97673,0.50114 0.97672,0.8487 0.97674,1.36987 0.9767,2.10719 0.97673,3.08913 0.97673,4.31569 0.97673,5.74541 0.97673,7.2882 0.97671,8.80858 0.97673,10.14182 0.97673,11.12161 0.97675,11.61285 0.97672,11.54117 0.97673,10.91007 0.97673,9.80043 0.97673,8.35252 0.97673,6.73592 0.97671,5.11647 0.97673,3.62891 0.97673,2.36132 0.97671,1.35218 0.97674,0.59835 0.97671,0.0685 0.97673,-0.28241 0.97673,-0.50138 0.97673,-0.62993 0.97673,-0.70041 0.97672,-0.73598 0.97674,-0.75172 0.97674,-0.7569 0.97673,-0.75674 0.97671,-0.75405 0.97673,-0.75023 0.97673,-0.74594 0.97673,-0.74145 0.97673,-0.73697 0.97672,-0.73244 0.97671,-0.72793 0.97674,-0.72348 0.97672,-0.71901 0.97673,-0.7146 0.97672,-0.71022 0.97673,-0.70583 0.97673,-0.70151 0.97673,-0.6972 0.97673,-0.6929 0.97673,-0.68865 0.97673,-0.68443 0.97673,-0.68019 0.97673,-0.67601 0.97672,-0.67188 0.97673,-0.66774 0.97673,-0.66363 0.97673,-0.65956 0.97671,-0.65551 0.97672,-0.65145 0.97673,-0.64748 0.97673,-0.64348 0.97673,-0.63952 0.97673,-0.63561 0.97671,-0.63169 0.97673,-0.6278 0.97675,-0.62396 0.97673,-0.62012 0.97671,-0.6163 0.97674,-0.61252 0.97673,-0.60874 0.97673,-0.60499 0.97673,-0.6013 0.97671,-0.59758 0.97673,-0.59392 0.97672,-0.59027 0.97673,-0.58663 0.97673,-0.58304 0.97671,-0.57945 0.97674,-0.57588 0.97672,-0.57236 0.97673,-0.56881 0.97672,-0.56533 0.97674,-0.56187 0.97673,-0.5584 0.97674,-0.55496 0.97672,-0.55156 0.97672,-0.54817 0.97673,-0.54479 0.97673,-0.54145 0.97673,-0.53812 0.97673,-0.53481 0.9767,-0.53152 0.97673,-0.52825 0.97673,-0.52502 0.97673,-0.52179 0.97673,-0.51857 0.97672,-0.51538 0.97673,-0.51222 0.97673,-0.50908 0.97674,-0.50594 0.97672,-0.50283 0.97673,-0.49973 0.97673,-0.49667 0.97673,-0.49361 0.97673,-0.49058 0.97672,-0.48755 0.97673,-0.48456 0.97673,-0.48161 0.97671,-0.47863 0.97673,-0.47567 0.97672,-0.47277 0.97673,-0.46986 0.97673,-0.46697 0.97673,-0.46409 0.97671,-0.46125 0.97674,-0.4584 0.97674,-0.45558 0.97673,-0.45281 0.97673,-0.44999 0.97672,-0.44724 0.97673,-0.4445 0.97673,-0.44174 0.97672,-0.43906 0.97674,-0.43634 0.97671,-0.43367 0.97672,-0.43099 0.97673,-0.42834 0.97673,-0.42572 0.97673,-0.42308 0.97671,-0.42052 0.97673,-0.41791 0.97673,-0.41533 0.97673,-0.41279 0.97674,-0.41025 0.97672,-0.40773 0.97674,-0.40523 0.97673,-0.40272 0.97673,-0.40025 0.97671,-0.39782 0.97673,-0.39534 0.97673,-0.39293 0.97673,-0.3905 0.97672,-0.38809 0.97671,-0.38571 0.97673,-0.38336 0.97673,-0.38098 0.97673,-0.37865 0.97672,-0.37631 0.97673,-0.37403 0.97673,-0.3717 0.97674,-0.36941 0.97674,-0.36716 0.97671,-0.3649 0.97673,-0.36266 0.97673,-0.36043 0.97673,-0.3582 0.97673,-0.356 0.97672,-0.35382 0.97673,-0.35164 0.97671,-0.34949 0.97673,-0.34733 0.97673,-0.34519 0.97672,-0.34308 0.97673,-0.34095 0.97673,-0.33887 0.97673,-0.33679 0.97671,-0.33472 0.97675,-0.33267 0.97673,-0.33061 0.97673,-0.32857 0.97673,-0.32657 0.97672,-0.32455 0.97673,-0.32256 0.97673,-0.32057 0.97673,-0.3186 0.97673,-0.31667 0.9767,-0.31468 0.97673,-0.31278 0.97672,-0.31085 0.97674,-0.30891 0.97671,-0.30704 0.97673,-0.30516 0.97673,-0.30327 0.97673,-0.30141 0.97675,-0.29954 0.97671,-0.29772 0.97673,-0.29588 0.97674,-0.29405 0.97673,-0.29227 0.97673,-0.29046 0.97671,-0.28867 0.97673,-0.28691 0.97673,-0.28513 0.97672,-0.28337 0.97673,-0.28163 0.97671,-0.27992 0.97674,-0.2782 0.97672,-0.27647 0.97673,-0.27478 0.97672,-0.27309 0.97673,-0.27139 0.97674,-0.26976 0.97673,-0.2681 0.97673,-0.26642 0.97672,-0.2648 0.97673,-0.26317 0.97673,-0.26155 0.97673,-0.25993 0.97673,-0.25836 0.97672,-0.25676 0.97671,-0.25519 0.97673,-0.25362 0.97673,-0.25204 0.97672,-0.25049 0.97673,-0.24898 0.97673,-0.24744 0.97673,-0.24591 0.97673,-0.2444 0.97673,-0.24289"
                           style="fill:none;stroke:#ff0000;stroke-width:0.99628001;stroke-linecap:butt;stroke-linejoin:miter;stroke-miterlimit:10;stroke-dasharray:none;stroke-opacity:1"
                           id="path5362"
                           inkscape:connector-curvature="0" /></g></g></g><g
                     id="g5364"><g
                       id="g5366"
                       transform="translate(114.708,-36.536)"><g
                         id="g5368"><g
                           id="g5370"
                           transform="translate(-175.986,-5.257)"><text
                             transform="matrix(1,0,0,-1,175.986,5.257)"
                             style="font-variant:normal;font-weight:normal;font-size:9.96259975px;font-family:CMMI10;-inkscape-font-specification:CMMI10;writing-mode:lr-tb;fill:#000000;fill-opacity:1;fill-rule:nonzero;stroke:none"
                             id="text5374"><tspan
                               x="0 3.5974948"
                               y="0"
                               sodipodi:role="line"
                               id="tspan5372">t,</tspan></text>
<text
                             transform="matrix(1,0,0,-1,185.671,5.257)"
                             style="font-variant:normal;font-weight:normal;font-size:9.96259975px;font-family:SFRM1000;-inkscape-font-specification:SFRM1000;writing-mode:lr-tb;fill:#000000;fill-opacity:1;fill-rule:nonzero;stroke:none"
                             id="text5378"><tspan
                               x="0 5.5332279"
                               y="0"
                               sodipodi:role="line"
                               id="tspan5376">нс</tspan></text>
<g
                             id="g5380"
                             transform="translate(175.986,5.257)" /></g></g><g
                         id="g5382"
                         transform="translate(-114.708,36.536)" /></g></g><g
                     id="g5384"><g
                       id="g5386"
                       transform="rotate(90,-43.1915,-7.2945)"><g
                         id="g5388"><g
                           id="g5390"
                           transform="translate(-10.792,-77.69)"><text
                             transform="matrix(1,0,0,-1,10.792,77.689)"
                             style="font-variant:normal;font-weight:normal;font-size:9.96259975px;font-family:CMMI10;-inkscape-font-specification:CMMI10;writing-mode:lr-tb;fill:#000000;fill-opacity:1;fill-rule:nonzero;stroke:none"
                             id="text5394"><tspan
                               x="0"
                               y="0"
                               id="tspan5392">P</tspan></text>
<text
                             transform="matrix(1,0,0,-1,18.572,77.689)"
                             style="font-variant:normal;font-weight:normal;font-size:9.96259975px;font-family:CMR10;-inkscape-font-specification:CMR10;writing-mode:lr-tb;fill:#000000;fill-opacity:1;fill-rule:nonzero;stroke:none"
                             id="text5398"><tspan
                               x="0"
                               y="0"
                               id="tspan5396">(</tspan></text>
<text
                             transform="matrix(1,0,0,-1,22.446,77.689)"
                             style="font-variant:normal;font-weight:normal;font-size:9.96259975px;font-family:CMMI10;-inkscape-font-specification:CMMI10;writing-mode:lr-tb;fill:#000000;fill-opacity:1;fill-rule:nonzero;stroke:none"
                             id="text5402"><tspan
                               x="0"
                               y="0"
                               id="tspan5400">t</tspan></text>
<text
                             transform="matrix(1,0,0,-1,26.044,77.689)"
                             style="font-variant:normal;font-weight:normal;font-size:9.96259975px;font-family:CMR10;-inkscape-font-specification:CMR10;writing-mode:lr-tb;fill:#000000;fill-opacity:1;fill-rule:nonzero;stroke:none"
                             id="text5406"><tspan
                               x="0"
                               y="0"
                               id="tspan5404">)</tspan></text>
<text
                             transform="matrix(1,0,0,-1,29.918,77.689)"
                             style="font-variant:normal;font-weight:normal;font-size:9.96259975px;font-family:SFRM1000;-inkscape-font-specification:SFRM1000;writing-mode:lr-tb;fill:#000000;fill-opacity:1;fill-rule:nonzero;stroke:none"
                             id="text5410"><tspan
                               x="0 6.0841599 11.064464 16.044767 21.577995 24.34461 28.770992 34.304222"
                               y="0"
                               sodipodi:role="line"
                               id="tspan5408">,отн.ед.</tspan></text>
<g
                             id="g5412"
                             transform="translate(10.792,77.689)" /></g></g><g
                         id="g5414"
                         transform="translate(50.486,-35.896)" /></g></g></g></g><g
                 id="g5416"
                 transform="translate(-61.278,-41.793)" /></g><g
               id="g5418"
               transform="translate(36.37,28.993)" /></g><g
             id="g5420" /><g
             id="g5422" /></g><text
           xml:space="preserve"
           style="font-style:normal;font-weight:normal;font-size:8px;line-height:1.25;font-family:sans-serif;letter-spacing:0px;word-spacing:0px;fill:#000000;fill-opacity:1;stroke:none;stroke-width:0.75"
           x="152.37427"
           y="-117.70975"
           id="text5426"
           transform="scale(1,-1)"><tspan
             sodipodi:role="line"
             x="152.37427"
             y="-117.70975"
             style="stroke-width:0.75"
             id="tspan5428">$\xi$</tspan></text>
</g></g></g></svg>