<?xml version="1.0" encoding="UTF-8" standalone="no"?>
<!-- Created with matplotlib (https://matplotlib.org/) -->

<svg
   xmlns:dc="http://purl.org/dc/elements/1.1/"
   xmlns:cc="http://creativecommons.org/ns#"
   xmlns:rdf="http://www.w3.org/1999/02/22-rdf-syntax-ns#"
   xmlns:svg="http://www.w3.org/2000/svg"
   xmlns="http://www.w3.org/2000/svg"
   xmlns:xlink="http://www.w3.org/1999/xlink"
   xmlns:sodipodi="http://sodipodi.sourceforge.net/DTD/sodipodi-0.dtd"
   xmlns:inkscape="http://www.inkscape.org/namespaces/inkscape"
   height="268.763329pt"
   version="1.1"
   viewBox="0 0 394.073037 268.763329"
   width="394.073037pt"
   id="svg4427"
   sodipodi:docname="impuls_1.svg"
   inkscape:version="0.92.4 5da689c313, 2019-01-14">
  <metadata
     id="metadata4431">
    <rdf:RDF>
      <cc:Work
         rdf:about="">
        <dc:format>image/svg+xml</dc:format>
        <dc:type
           rdf:resource="http://purl.org/dc/dcmitype/StillImage" />
        <dc:title></dc:title>
      </cc:Work>
    </rdf:RDF>
  </metadata>
  <sodipodi:namedview
     pagecolor="#ffffff"
     bordercolor="#666666"
     borderopacity="1"
     objecttolerance="10"
     gridtolerance="10"
     guidetolerance="10"
     inkscape:pageopacity="0"
     inkscape:pageshadow="2"
     inkscape:window-width="1880"
     inkscape:window-height="1006"
     id="namedview4429"
     showgrid="false"
     inkscape:zoom="1.8627228"
     inkscape:cx="217.26632"
     inkscape:cy="179.17556"
     inkscape:window-x="20"
     inkscape:window-y="37"
     inkscape:window-maximized="0"
     inkscape:current-layer="svg4427" />
  <defs
     id="defs4138">
    <style
       type="text/css"
       id="style4136">
*{stroke-linecap:butt;stroke-linejoin:round;}
  </style>
  </defs>
  <g
     id="figure_1">
    <g
       id="patch_1">
      <path
         d="M -0 268.763329  L 394.073037 268.763329  L 394.073037 0  L -0 0  z "
         style="fill:#ffffff;"
         id="path4140" />
    </g>
    <g
       id="axes_1">
      <g
         id="patch_2">
        <path
           d="M 52.073037 228.96  L 386.873037 228.96  L 386.873037 7.2  L 52.073037 7.2  z "
           style="fill:#ffffff;"
           id="path4143" />
      </g>
      <g
         id="matplotlib.axis_1">
        <g
           id="xtick_1">
          <g
             id="line2d_1">
            <defs
               id="defs4147">
              <path
                 d="M 0 0  L 0 3.5  "
                 id="m666f602d89"
                 style="stroke:#000000;stroke-width:0.8;" />
            </defs>
            <g
               id="g4151">
              <use
                 style="stroke:#000000;stroke-width:0.8;"
                 x="67.291219"
                 xlink:href="#m666f602d89"
                 y="228.96"
                 id="use4149" />
            </g>
          </g>
          <g
             id="text_1">
            <!-- $0$ -->
            <defs
               id="defs4155">
              <path
                 d="M 42 31.640625  C 42 37.75 41.90625 48.125 37.703125 56.109375  C 34 63.109375 28.09375 65.59375 22.90625 65.59375  C 18.09375 65.59375 12 63.40625 8.203125 56.203125  C 4.203125 48.71875 3.796875 39.4375 3.796875 31.640625  C 3.796875 25.953125 3.90625 17.28125 7 9.671875  C 11.296875 -0.609375 19 -2 22.90625 -2  C 27.5 -2 34.5 -0.109375 38.59375 9.375  C 41.59375 16.28125 42 24.359375 42 31.640625  z M 22.90625 -0.40625  C 16.5 -0.40625 12.703125 5.078125 11.296875 12.6875  C 10.203125 18.5625 10.203125 27.15625 10.203125 32.75  C 10.203125 40.4375 10.203125 46.828125 11.5 52.921875  C 13.40625 61.390625 19 64 22.90625 64  C 27 64 32.296875 61.296875 34.203125 53.125  C 35.5 47.4375 35.59375 40.734375 35.59375 32.75  C 35.59375 26.25 35.59375 18.265625 34.40625 12.375  C 32.296875 1.484375 26.40625 -0.40625 22.90625 -0.40625  z "
                 id="CMR17-48" />
            </defs>
            <g
               transform="translate(64.800551 242.876811)scale(0.1 -0.1)"
               id="g4159">
              <use
                 transform="scale(0.996264)"
                 xlink:href="#CMR17-48"
                 id="use4157" />
            </g>
          </g>
        </g>
        <g
           id="xtick_2">
          <g
             id="line2d_2">
            <g
               id="g4165">
              <use
                 style="stroke:#000000;stroke-width:0.8;"
                 x="135.381518"
                 xlink:href="#m666f602d89"
                 y="228.96"
                 id="use4163" />
            </g>
          </g>
          <g
             id="text_2">
            <!-- $1$ -->
            <defs
               id="defs4169">
              <path
                 d="M 26.59375 63.40625  C 26.59375 65.5 26.5 65.5 25.09375 65.5  C 21.203125 61.1875 15.296875 59.796875 9.703125 59.796875  C 9.40625 59.796875 8.90625 59.796875 8.796875 59.5  C 8.703125 59.296875 8.703125 59.09375 8.703125 57  C 11.796875 57 17 57.59375 21 59.984375  L 21 7.203125  C 21 3.6875 20.796875 2.5 12.203125 2.5  L 9.203125 2.5  L 9.203125 0  C 14 0 19 0 23.796875 0  C 28.59375 0 33.59375 0 38.40625 0  L 38.40625 2.5  L 35.40625 2.5  C 26.796875 2.5 26.59375 3.59375 26.59375 7.15625  z "
                 id="CMR17-49" />
            </defs>
            <g
               transform="translate(132.89085 242.876811)scale(0.1 -0.1)"
               id="g4173">
              <use
                 transform="scale(0.996264)"
                 xlink:href="#CMR17-49"
                 id="use4171" />
            </g>
          </g>
        </g>
        <g
           id="xtick_3">
          <g
             id="line2d_3">
            <g
               id="g4179">
              <use
                 style="stroke:#000000;stroke-width:0.8;"
                 x="203.471817"
                 xlink:href="#m666f602d89"
                 y="228.96"
                 id="use4177" />
            </g>
          </g>
          <g
             id="text_3">
            <!-- $2$ -->
            <defs
               id="defs4183">
              <path
                 d="M 41.703125 15.453125  L 39.90625 15.453125  C 38.90625 8.375 38.09375 7.171875 37.703125 6.5625  C 37.203125 5.765625 30 5.765625 28.59375 5.765625  L 9.40625 5.765625  C 13 9.671875 20 16.75 28.5 24.953125  C 34.59375 30.734375 41.703125 37.53125 41.703125 47.421875  C 41.703125 59.21875 32.296875 66 21.796875 66  C 10.796875 66 4.09375 56.3125 4.09375 47.34375  C 4.09375 43.4375 7 42.9375 8.203125 42.9375  C 9.203125 42.9375 12.203125 43.546875 12.203125 47.03125  C 12.203125 50.109375 9.59375 51 8.203125 51  C 7.59375 51 7 50.90625 6.59375 50.703125  C 8.5 59.21875 14.296875 63.40625 20.40625 63.40625  C 29.09375 63.40625 34.796875 56.515625 34.796875 47.421875  C 34.796875 38.734375 29.703125 31.25 24 24.75  L 4.09375 2.28125  L 4.09375 0  L 39.296875 0  z "
                 id="CMR17-50" />
            </defs>
            <g
               transform="translate(200.981149 242.876811)scale(0.1 -0.1)"
               id="g4187">
              <use
                 transform="scale(0.996264)"
                 xlink:href="#CMR17-50"
                 id="use4185" />
            </g>
          </g>
        </g>
        <g
           id="xtick_4">
          <g
             id="line2d_4">
            <g
               id="g4193">
              <use
                 style="stroke:#000000;stroke-width:0.8;"
                 x="271.562116"
                 xlink:href="#m666f602d89"
                 y="228.96"
                 id="use4191" />
            </g>
          </g>
          <g
             id="text_4">
            <!-- $3$ -->
            <defs
               id="defs4197">
              <path
                 d="M 22.09375 33.703125  C 31 33.703125 34.90625 25.96875 34.90625 17.03125  C 34.90625 5 28.5 0.390625 22.703125 0.390625  C 17.40625 0.390625 8.796875 3.03125 6.09375 10.828125  C 6.59375 10.625 7.09375 10.625 7.59375 10.625  C 10 10.625 11.796875 12.21875 11.796875 14.8125  C 11.796875 17.703125 9.59375 19 7.59375 19  C 5.90625 19 3.296875 18.203125 3.296875 14.46875  C 3.296875 5.234375 12.296875 -2 22.90625 -2  C 34 -2 42.5 6.71875 42.5 16.953125  C 42.5 26.671875 34.5 33.703125 25 34.796875  C 32.59375 36.375 39.90625 43.0625 39.90625 52.015625  C 39.90625 59.6875 32 65.296875 23 65.296875  C 13.90625 65.296875 5.90625 59.828125 5.90625 52.015625  C 5.90625 48.59375 8.5 48 9.796875 48  C 11.90625 48 13.703125 49.296875 13.703125 51.890625  C 13.703125 54.46875 11.90625 55.765625 9.796875 55.765625  C 9.40625 55.765625 8.90625 55.765625 8.5 55.578125  C 11.40625 61.859375 19.296875 63 22.796875 63  C 26.296875 63 32.90625 61.328125 32.90625 51.875  C 32.90625 49.109375 32.5 44.1875 29.09375 39.84375  C 26.09375 36 22.703125 36 19.40625 35.6875  C 18.90625 35.6875 16.59375 35.453125 16.203125 35.453125  C 15.5 35.359375 15.09375 35.265625 15.09375 34.5  C 15.09375 33.796875 15.203125 33.703125 17.203125 33.703125  z "
                 id="CMR17-51" />
            </defs>
            <g
               transform="translate(269.071448 242.876811)scale(0.1 -0.1)"
               id="g4201">
              <use
                 transform="scale(0.996264)"
                 xlink:href="#CMR17-51"
                 id="use4199" />
            </g>
          </g>
        </g>
        <g
           id="xtick_5">
          <g
             id="line2d_5">
            <g
               id="g4207">
              <use
                 style="stroke:#000000;stroke-width:0.8;"
                 x="339.652415"
                 xlink:href="#m666f602d89"
                 y="228.96"
                 id="use4205" />
            </g>
          </g>
          <g
             id="text_5">
            <!-- $4$ -->
            <defs
               id="defs4211">
              <path
                 d="M 33.59375 64.40625  C 33.59375 66.5 33.5 66.5 31.703125 66.5  L 2 19.59375  L 2 17  L 27.796875 17  L 27.796875 7.140625  C 27.796875 3.5 27.59375 2.5 20.59375 2.5  L 18.703125 2.5  L 18.703125 0  C 21.90625 0 27.296875 0 30.703125 0  C 34.09375 0 39.5 0 42.703125 0  L 42.703125 2.5  L 40.796875 2.5  C 33.796875 2.5 33.59375 3.5 33.59375 7.140625  L 33.59375 17  L 43.796875 17  L 43.796875 19.59375  L 33.59375 19.59375  z M 28.09375 57.859375  L 28.09375 19.59375  L 4 19.59375  z "
                 id="CMR17-52" />
            </defs>
            <g
               transform="translate(337.161747 242.876811)scale(0.1 -0.1)"
               id="g4215">
              <use
                 transform="scale(0.996264)"
                 xlink:href="#CMR17-52"
                 id="use4213" />
            </g>
          </g>
        </g>
        <g
           id="text_6">
          <!-- $t,$ c -->
          <defs
             id="defs4222">
            <path
               d="M 20.09375 40.09375  L 29.296875 40.09375  C 31.203125 40.09375 32.203125 40.09375 32.203125 41.890625  C 32.203125 43 31.59375 43 29.59375 43  L 20.796875 43  L 24.5 57.6875  C 24.90625 59.078125 24.90625 59.28125 24.90625 60  C 24.90625 61.609375 23.59375 62.5 22.296875 62.5  C 21.5 62.5 19.203125 62.203125 18.40625 58.984375  L 14.5 43  L 5.09375 43  C 3.09375 43 2.203125 43 2.203125 41.09375  C 2.203125 40.09375 2.90625 40.09375 4.796875 40.09375  L 13.703125 40.09375  L 7.09375 13.765625  C 6.296875 10.28125 6 9.28125 6 7.984375  C 6 3.296875 9.296875 -1 14.90625 -1  C 25 -1 30.40625 13.5625 30.40625 14.25  C 30.40625 14.859375 30 15.15625 29.40625 15.15625  C 29.203125 15.15625 28.796875 15.15625 28.59375 14.75  C 28.5 14.65625 28.40625 14.546875 27.703125 12.953125  C 25.59375 7.984375 21 1 15.203125 1  C 12.203125 1 12 3.5 12 5.6875  C 12 5.78125 12 7.6875 12.296875 8.875  z "
               id="CMMI12-116" />
            <path
               d="M 19.5 -0.484375  C 19.5 5.359375 17.59375 9.671875 13.5 9.671875  C 10.296875 9.671875 8.703125 7.078125 8.703125 4.890625  C 8.703125 2.6875 10.203125 0 13.59375 0  C 14.90625 0 16 0.40625 16.90625 1.296875  C 17.09375 1.5 17.203125 1.5 17.296875 1.5  C 17.5 1.5 17.5 0.078125 17.5 -0.421875  C 17.5 -3.75 16.90625 -10.296875 11.09375 -16.875  C 10 -18.078125 10 -18.28125 10 -18.484375  C 10 -19 10.5 -19.5 11 -19.5  C 11.796875 -19.5 19.5 -12.046875 19.5 -0.484375  z "
               id="CMMI12-59" />
            <path
               d="M 34.703125 32.6875  C 34.203125 32.796875 33.703125 32.890625 33.203125 32.890625  C 31.59375 32.890625 30.40625 31.5 30.40625 30  C 30.40625 28.5 31.59375 27 33.296875 27  C 34.703125 27 36.09375 28 36.296875 29.5  L 36.296875 30.09375  C 36.296875 36.96875 30.703125 44.046875 22.5 44.046875  C 11.203125 44.046875 4.203125 32.328125 4.203125 21.71875  C 4.203125 11.21875 10.59375 0.5 21.296875 -0.5  L 22.296875 -0.5  C 29.40625 -0.5 35 4.015625 37 10.75  C 37.09375 11.140625 37.203125 11.546875 37.203125 11.953125  C 37.203125 12.25 37 12.34375 36.796875 12.34375  C 35.703125 12.34375 35.5 10.453125 35.09375 9.4375  C 33.296875 4.3125 28.5 0.796875 23.40625 0.796875  C 13.90625 0.796875 9.296875 12.015625 9.296875 20.234375  C 9.296875 28.640625 11.09375 42.765625 22.703125 42.765625  C 28.296875 42.765625 33.40625 38.171875 34.703125 32.6875  z "
               id="Computer_Modern_Roman-99" />
          </defs>
          <g
             transform="translate(209.801329 258.773711)scale(0.14 -0.14)"
             id="g4230">
            <use
               transform="scale(0.996264)"
               xlink:href="#CMMI12-116"
               id="use4224" />
            <use
               transform="translate(35.22633 0)scale(0.996264)"
               xlink:href="#CMMI12-59"
               id="use4226" />
            <use
               transform="translate(72.964405 0)scale(0.356961)"
               xlink:href="#Computer_Modern_Roman-99"
               id="use4228" />
          </g>
        </g>
        <g
           id="text_7">
          <!-- $\times10^{-7}$ -->
          <defs
             id="defs4236">
            <path
               d="M 38.90625 27.890625  L 18.90625 47.796875  C 17.703125 49 17.5 49.1875 16.703125 49.1875  C 15.703125 49.1875 14.703125 48.296875 14.703125 47.1875  C 14.703125 46.5 14.90625 46.296875 16 45.1875  L 36 25.09375  L 16 5  C 14.90625 3.890625 14.703125 3.6875 14.703125 3  C 14.703125 1.890625 15.703125 1 16.703125 1  C 17.5 1 17.703125 1.1875 18.90625 2.390625  L 38.796875 22.296875  L 59.5 1.59375  C 59.703125 1.5 60.40625 1 61 1  C 62.203125 1 63 1.890625 63 3  C 63 3.1875 63 3.59375 62.703125 4.09375  C 62.59375 4.296875 46.703125 20 41.703125 25.09375  L 60 43.390625  C 60.5 44 62 45.296875 62.5 45.890625  C 62.59375 46.09375 63 46.5 63 47.1875  C 63 48.296875 62.203125 49.1875 61 49.1875  C 60.203125 49.1875 59.796875 48.796875 58.703125 47.6875  z "
               id="CMSY10-2" />
            <path
               d="M 65.90625 23  C 67.59375 23 69.40625 23 69.40625 25  C 69.40625 27 67.59375 27 65.90625 27  L 11.796875 27  C 10.09375 27 8.296875 27 8.296875 25  C 8.296875 23 10.09375 23 11.796875 23  z "
               id="CMSY10-0" />
            <path
               d="M 45.09375 61.578125  L 45.09375 63.765625  L 21.59375 63.765625  C 9.90625 63.765625 9.703125 65.078125 9.296875 67  L 7.5 67  L 4.59375 48.34375  L 6.40625 48.34375  C 6.703125 50.234375 7.40625 55.3125 8.59375 57.203125  C 9.203125 58 16.59375 58 18.296875 58  L 40.296875 58  L 29.203125 41.578125  C 21.796875 30.53125 16.703125 15.609375 16.703125 2.578125  C 16.703125 1.390625 16.703125 -2 20.296875 -2  C 23.90625 -2 23.90625 1.390625 23.90625 2.671875  L 23.90625 7.265625  C 23.90625 23.5625 26.703125 34.3125 31.296875 41.1875  z "
               id="CMR17-55" />
          </defs>
          <g
             transform="translate(358.96372 254.816645)scale(0.1 -0.1)"
             id="g4248">
            <use
               transform="scale(0.996264)"
               xlink:href="#CMSY10-2"
               id="use4238" />
            <use
               transform="translate(77.487468 0)scale(0.996264)"
               xlink:href="#CMR17-49"
               id="use4240" />
            <use
               transform="translate(123.177945 0)scale(0.996264)"
               xlink:href="#CMR17-48"
               id="use4242" />
            <use
               transform="translate(168.868422 36.153639)scale(0.697382)"
               xlink:href="#CMSY10-0"
               id="use4244" />
            <use
               transform="translate(223.109415 36.153639)scale(0.697382)"
               xlink:href="#CMR17-55"
               id="use4246" />
          </g>
        </g>
      </g>
      <g
         id="matplotlib.axis_2">
        <g
           id="ytick_1">
          <g
             id="line2d_6">
            <defs
               id="defs4253">
              <path
                 d="M 0 0  L -3.5 0  "
                 id="m6fe060ca18"
                 style="stroke:#000000;stroke-width:0.8;" />
            </defs>
            <g
               id="g4257">
              <use
                 style="stroke:#000000;stroke-width:0.8;"
                 x="52.073037"
                 xlink:href="#m6fe060ca18"
                 y="218.88"
                 id="use4255" />
            </g>
          </g>
          <g
             id="text_8">
            <!-- $0$ -->
            <g
               transform="translate(40.091702 222.338405)scale(0.1 -0.1)"
               id="g4262">
              <use
                 transform="scale(0.996264)"
                 xlink:href="#CMR17-48"
                 id="use4260" />
            </g>
          </g>
        </g>
        <g
           id="ytick_2">
          <g
             id="line2d_7">
            <g
               id="g4268">
              <use
                 style="stroke:#000000;stroke-width:0.8;"
                 x="52.073037"
                 xlink:href="#m6fe060ca18"
                 y="182.600412"
                 id="use4266" />
            </g>
          </g>
          <g
             id="text_9">
            <!-- $1000$ -->
            <g
               transform="translate(25.147696 186.058818)scale(0.1 -0.1)"
               id="g4279">
              <use
                 transform="scale(0.996264)"
                 xlink:href="#CMR17-49"
                 id="use4271" />
              <use
                 transform="translate(45.690477 0)scale(0.996264)"
                 xlink:href="#CMR17-48"
                 id="use4273" />
              <use
                 transform="translate(91.380954 0)scale(0.996264)"
                 xlink:href="#CMR17-48"
                 id="use4275" />
              <use
                 transform="translate(137.071431 0)scale(0.996264)"
                 xlink:href="#CMR17-48"
                 id="use4277" />
            </g>
          </g>
        </g>
        <g
           id="ytick_3">
          <g
             id="line2d_8">
            <g
               id="g4285">
              <use
                 style="stroke:#000000;stroke-width:0.8;"
                 x="52.073037"
                 xlink:href="#m6fe060ca18"
                 y="146.320825"
                 id="use4283" />
            </g>
          </g>
          <g
             id="text_10">
            <!-- $2000$ -->
            <g
               transform="translate(25.147696 149.77923)scale(0.1 -0.1)"
               id="g4296">
              <use
                 transform="scale(0.996264)"
                 xlink:href="#CMR17-50"
                 id="use4288" />
              <use
                 transform="translate(45.690477 0)scale(0.996264)"
                 xlink:href="#CMR17-48"
                 id="use4290" />
              <use
                 transform="translate(91.380954 0)scale(0.996264)"
                 xlink:href="#CMR17-48"
                 id="use4292" />
              <use
                 transform="translate(137.071431 0)scale(0.996264)"
                 xlink:href="#CMR17-48"
                 id="use4294" />
            </g>
          </g>
        </g>
        <g
           id="ytick_4">
          <g
             id="line2d_9">
            <g
               id="g4302">
              <use
                 style="stroke:#000000;stroke-width:0.8;"
                 x="52.073037"
                 xlink:href="#m6fe060ca18"
                 y="110.041237"
                 id="use4300" />
            </g>
          </g>
          <g
             id="text_11">
            <!-- $3000$ -->
            <g
               transform="translate(25.147696 113.499642)scale(0.1 -0.1)"
               id="g4313">
              <use
                 transform="scale(0.996264)"
                 xlink:href="#CMR17-51"
                 id="use4305" />
              <use
                 transform="translate(45.690477 0)scale(0.996264)"
                 xlink:href="#CMR17-48"
                 id="use4307" />
              <use
                 transform="translate(91.380954 0)scale(0.996264)"
                 xlink:href="#CMR17-48"
                 id="use4309" />
              <use
                 transform="translate(137.071431 0)scale(0.996264)"
                 xlink:href="#CMR17-48"
                 id="use4311" />
            </g>
          </g>
        </g>
        <g
           id="ytick_5">
          <g
             id="line2d_10">
            <g
               id="g4319">
              <use
                 style="stroke:#000000;stroke-width:0.8;"
                 x="52.073037"
                 xlink:href="#m6fe060ca18"
                 y="73.761649"
                 id="use4317" />
            </g>
          </g>
          <g
             id="text_12">
            <!-- $4000$ -->
            <g
               transform="translate(25.147696 77.220055)scale(0.1 -0.1)"
               id="g4330">
              <use
                 transform="scale(0.996264)"
                 xlink:href="#CMR17-52"
                 id="use4322" />
              <use
                 transform="translate(45.690477 0)scale(0.996264)"
                 xlink:href="#CMR17-48"
                 id="use4324" />
              <use
                 transform="translate(91.380954 0)scale(0.996264)"
                 xlink:href="#CMR17-48"
                 id="use4326" />
              <use
                 transform="translate(137.071431 0)scale(0.996264)"
                 xlink:href="#CMR17-48"
                 id="use4328" />
            </g>
          </g>
        </g>
        <g
           id="ytick_6">
          <g
             id="line2d_11">
            <g
               id="g4336">
              <use
                 style="stroke:#000000;stroke-width:0.8;"
                 x="52.073037"
                 xlink:href="#m6fe060ca18"
                 y="37.482062"
                 id="use4334" />
            </g>
          </g>
          <g
             id="text_13">
            <!-- $5000$ -->
            <defs
               id="defs4340">
              <path
                 d="M 11.40625 57.6875  C 12.40625 57.28125 16.5 56 20.703125 56  C 30 56 35.09375 61.109375 38 64.0625  C 38 64.953125 38 65.5 37.40625 65.5  C 37.296875 65.5 37.09375 65.5 36.296875 65.046875  C 32.796875 63.40625 28.703125 62.078125 23.703125 62.078125  C 20.703125 62.078125 16.203125 62.484375 11.296875 64.671875  C 10.203125 65.171875 10 65.171875 9.90625 65.171875  C 9.40625 65.171875 9.296875 65.0625 9.296875 63.078125  L 9.296875 34.421875  C 9.296875 32.640625 9.296875 32.140625 10.296875 32.140625  C 10.796875 32.140625 11 32.34375 11.5 33.03125  C 14.703125 37.515625 19.09375 39.40625 24.09375 39.40625  C 27.59375 39.40625 35.09375 37.21875 35.09375 20.140625  C 35.09375 16.953125 35.09375 11.171875 32.09375 6.578125  C 29.59375 2.484375 25.703125 0.390625 21.40625 0.390625  C 14.796875 0.390625 8.09375 5 6.296875 12.71875  C 6.703125 12.609375 7.5 12.421875 7.90625 12.421875  C 9.203125 12.421875 11.703125 13.125 11.703125 16.21875  C 11.703125 18.90625 9.796875 20 7.90625 20  C 5.59375 20 4.09375 18.59375 4.09375 15.796875  C 4.09375 7.09375 11 -2 21.59375 -2  C 31.90625 -2 41.703125 6.875 41.703125 19.75  C 41.703125 31.71875 33.90625 41 24.203125 41  C 19.09375 41 14.796875 39.109375 11.40625 35.53125  z "
                 id="CMR17-53" />
            </defs>
            <g
               transform="translate(25.147696 40.940467)scale(0.1 -0.1)"
               id="g4350">
              <use
                 transform="scale(0.996264)"
                 xlink:href="#CMR17-53"
                 id="use4342" />
              <use
                 transform="translate(45.690477 0)scale(0.996264)"
                 xlink:href="#CMR17-48"
                 id="use4344" />
              <use
                 transform="translate(91.380954 0)scale(0.996264)"
                 xlink:href="#CMR17-48"
                 id="use4346" />
              <use
                 transform="translate(137.071431 0)scale(0.996264)"
                 xlink:href="#CMR17-48"
                 id="use4348" />
            </g>
          </g>
        </g>
        <g
           id="text_14">
          <!-- $P(t),$ усл. единицы -->
          <defs
             id="defs4367">
            <path
               d="M 29.59375 31.609375  L 46.40625 31.609375  C 60.203125 31.609375 74 41.765625 74 53.140625  C 74 60.90625 67.40625 68 54.796875 68  L 23.90625 68  C 22 68 21.09375 68 21.09375 66.109375  C 21.09375 65.109375 22 65.109375 23.5 65.109375  C 29.59375 65.109375 29.59375 64.3125 29.59375 63.21875  C 29.59375 63.03125 29.59375 62.421875 29.203125 60.921875  L 15.703125 7.375  C 14.796875 3.890625 14.59375 2.890625 7.59375 2.890625  C 5.703125 2.890625 4.703125 2.890625 4.703125 1.09375  C 4.703125 0 5.59375 0 6.203125 0  C 8.09375 0 10.09375 0 12 0  L 23.703125 0  C 25.59375 0 27.703125 0 29.59375 0  C 30.40625 0 31.5 0 31.5 1.890625  C 31.5 2.890625 30.59375 2.890625 29.09375 2.890625  C 23.09375 2.890625 23 3.59375 23 4.578125  C 23 5.078125 23.09375 5.765625 23.203125 6.265625  z M 36.796875 61.40625  C 37.703125 65.109375 38.09375 65.109375 42 65.109375  L 51.90625 65.109375  C 59.40625 65.109375 65.59375 62.703125 65.59375 55.234375  C 65.59375 52.640625 64.296875 44.171875 59.703125 39.59375  C 58 37.796875 53.203125 34 44.09375 34  L 30 34  z "
               id="CMMI12-80" />
            <path
               d="M 30.59375 -24.390625  C 30.59375 -24.296875 30.59375 -24.09375 30.296875 -23.796875  C 25.703125 -19.125 13.40625 -6.359375 13.40625 24.703125  C 13.40625 55.765625 25.5 68.421875 30.40625 73.390625  C 30.40625 73.5 30.59375 73.703125 30.59375 74  C 30.59375 74.296875 30.296875 74.5 29.90625 74.5  C 28.796875 74.5 20.296875 67.125 15.40625 56.15625  C 10.40625 45.109375 9 34.359375 9 24.8125  C 9 17.625 9.703125 5.484375 15.703125 -7.359375  C 20.5 -17.734375 28.703125 -25 29.90625 -25  C 30.40625 -25 30.59375 -24.796875 30.59375 -24.390625  z "
               id="CMR17-40" />
            <path
               d="M 26.296875 24.703125  C 26.296875 31.875 25.59375 44.015625 19.59375 56.859375  C 14.796875 67.234375 6.59375 74.5 5.40625 74.5  C 5.09375 74.5 4.703125 74.390625 4.703125 73.890625  C 4.703125 73.703125 4.796875 73.59375 4.90625 73.390625  C 9.703125 68.40625 21.90625 55.75 21.90625 24.75  C 21.90625 -6.359375 9.796875 -19.015625 4.90625 -24.015625  C 4.796875 -24.203125 4.703125 -24.3125 4.703125 -24.5  C 4.703125 -25 5.09375 -25 5.40625 -25  C 6.5 -25 15 -17.625 19.90625 -6.65625  C 24.90625 4.390625 26.296875 15.140625 26.296875 24.703125  z "
               id="CMR17-41" />
            <path
               d="M 1.40625 44.046875  L 1.40625 42.953125  C 6.40625 42.953125 6.796875 40.9375 9.296875 34.6875  C 13.5 24.3125 17.90625 13.828125 21.796875 3.359375  C 22.09375 2.5625 22.703125 1.640625 22.703125 0.734375  C 22.703125 -1.375 20.59375 -4.90625 19.703125 -7.125  C 18 -11.75 15.5 -18.296875 9.796875 -18.296875  C 7.703125 -18.296875 5.5 -17.40625 4 -16  C 5.59375 -16 7 -15.09375 7 -13.296875  C 7 -11.796875 5.796875 -10.703125 4.296875 -10.703125  C 2.90625 -10.703125 1.703125 -11.703125 1.703125 -13.5  C 1.703125 -17.40625 6.09375 -19.5 9.59375 -19.5  L 9.703125 -19.5  C 16.296875 -19.5 18.90625 -12.640625 21.09375 -7.1875  L 24.40625 0.984375  C 28.09375 10.265625 31.796875 19.65625 35.5 28.9375  C 36 30.15625 36.5 31.25 36.90625 32.46875  C 38.59375 36.59375 40.40625 42.765625 45.796875 42.765625  L 45.796875 44.046875  L 34.203125 44.046875  L 34.203125 42.953125  C 36.09375 42.953125 37.5 40.9375 37.5 39.125  C 37.5 37.40625 36.703125 35.390625 36.09375 33.875  C 33.59375 27.734375 31.203125 21.46875 28.703125 15.3125  L 26.296875 9.375  C 25.90625 8.25 25.40625 7.25 25.09375 6.140625  L 25 6.140625  C 24.203125 9.671875 22.296875 13.203125 20.90625 16.53125  C 18.59375 22.1875 16.40625 27.921875 14.203125 33.578125  L 13 36.609375  C 12.5 37.703125 11.796875 39.125 11.796875 40.34375  C 11.796875 41.734375 13 42.953125 15.90625 42.953125  L 15.90625 44.046875  L 11.203125 44.046875  z "
               id="Computer_Modern_Roman-243" />
            <path
               d="M 34.703125 32.6875  C 34.203125 32.796875 33.703125 32.890625 33.203125 32.890625  C 31.59375 32.890625 30.40625 31.5 30.40625 30  C 30.40625 28.5 31.59375 27 33.296875 27  C 34.703125 27 36.09375 28 36.296875 29.5  L 36.296875 30.09375  C 36.296875 36.96875 30.703125 44.046875 22.5 44.046875  C 11.203125 44.046875 4.203125 32.328125 4.203125 21.71875  C 4.203125 11.21875 10.59375 0.5 21.296875 -0.5  L 22.296875 -0.5  C 29.40625 -0.5 35 4.015625 37 10.75  C 37.09375 11.140625 37.203125 11.546875 37.203125 11.953125  C 37.203125 12.25 37 12.34375 36.796875 12.34375  C 35.703125 12.34375 35.5 10.453125 35.09375 9.4375  C 33.296875 4.3125 28.5 0.796875 23.40625 0.796875  C 13.90625 0.796875 9.296875 12.015625 9.296875 20.234375  C 9.296875 28.640625 11.09375 42.765625 22.703125 42.765625  C 28.296875 42.765625 33.40625 38.171875 34.703125 32.6875  z "
               id="Computer_Modern_Roman-241" />
            <path
               d="M 12.703125 42.953125  L 12.703125 41.859375  L 14.203125 41.859375  C 16.59375 41.859375 18.796875 41.265625 18.796875 38.1875  L 18.796875 37.40625  C 18.796875 35.328125 18.703125 33.25 18.5 31.171875  C 17.796875 22.859375 17.296875 14.15625 13.90625 6.4375  C 12.703125 3.765625 10.90625 0.796875 8.40625 0.796875  C 6.59375 0.796875 5 1.59375 3.796875 2.796875  L 4.40625 2.796875  C 5.90625 2.796875 7 3.796875 7 5.296875  C 7 6.890625 5.90625 8 4.40625 8  C 2.59375 8 1.703125 6.703125 1.703125 5  C 1.796875 1.5 5.09375 -0.5 8.40625 -0.5  C 12.703125 -0.5 15 5.234375 16.203125 8.796875  C 18.796875 16.53125 19.90625 25.53125 19.90625 33.640625  L 19.90625 35.03125  C 19.90625 38.890625 20.09375 41.859375 23.09375 41.859375  L 32.796875 41.859375  C 34.59375 41.859375 35 40.578125 35.203125 39.1875  L 35.203125 5.703125  C 35.203125 1.609375 33.203125 1.203125 30.40625 1.203125  L 29.296875 1.203125  L 29.296875 0  L 45.203125 0  L 45.203125 1.203125  L 43.796875 1.203125  C 41.296875 1.203125 39.296875 1.703125 39.296875 5.203125  L 39.296875 37.859375  C 39.296875 41.359375 41.40625 41.859375 43.796875 41.859375  L 45.203125 41.859375  L 45.203125 42.953125  z "
               id="Computer_Modern_Roman-235" />
            <path
               d="M 11.90625 6.40625  C 10.296875 6.40625 9.296875 4.609375 9.296875 3.3125  C 9.296875 1.8125 10.5 0 12.40625 0  C 14.40625 0 15.703125 1.671875 15.703125 3.15625  C 15.703125 4.546875 14.5 6.40625 12.5 6.40625  C 12.296875 6.40625 12.09375 6.40625 11.90625 6.40625  z "
               id="Computer_Modern_Roman-46" />
            <path
               d="M 8.796875 23.8125  L 35.09375 23.8125  C 35.296875 23.8125 35.703125 23.703125 36.09375 23.703125  C 36.796875 23.703125 37.09375 24.109375 37.09375 24.703125  C 37.09375 33.65625 32.796875 44 21.59375 44  C 9.59375 44 3.703125 31.734375 3.703125 21.953125  C 3.703125 12.15625 9.203125 1.09375 21.09375 -0.40625  C 21.5 -0.40625 21.90625 -0.5 22.296875 -0.5  C 29.203125 -0.5 34.5 4.265625 36.796875 10.71875  C 36.90625 11.015625 37 11.40625 37 11.703125  C 37 12 36.90625 12.296875 36.5 12.296875  C 35.5 12.296875 35.40625 10.71875 35.09375 9.8125  C 33.09375 5.0625 28.796875 0.890625 23.203125 0.890625  C 19 0.890625 15 3.28125 12.703125 6.640625  C 9 11.59375 8.796875 17.953125 8.796875 23.8125  z M 8.90625 25  C 9.09375 32.859375 13 42.8125 21.40625 42.8125  C 28.40625 42.8125 31.40625 35.375 32.203125 29.53125  C 32.296875 28.015625 32.296875 26.515625 32.5 25  z "
               id="Computer_Modern_Roman-229" />
            <path
               d="M 13 42.953125  L 13 41.859375  L 14.296875 41.859375  C 17 41.859375 18.796875 41.0625 18.796875 38.171875  L 18.796875 37.59375  C 18.796875 25.65625 18 1.390625 4 1.390625  L 2.703125 -16  L 4 -16  C 4.296875 -11.65625 4.40625 -5.125 7 -2.5625  C 9.09375 -0.5 12.09375 0 15 0  L 33.59375 0  C 38.09375 0 43.40625 0 44.59375 -6.84375  C 45.296875 -9.859375 45.5 -12.984375 45.703125 -16  L 47 -16  L 45.703125 1.390625  L 44.296875 1.390625  C 41.796875 1.390625 39.296875 1.6875 39.296875 5.375  L 39.296875 37.96875  C 39.296875 41.359375 41.40625 41.859375 43.796875 41.859375  L 45.203125 41.859375  L 45.203125 42.953125  z M 35.09375 3.875  C 35.09375 1.6875 33.703125 1.390625 32.203125 1.390625  L 13.203125 1.390625  C 12.59375 1.5 12.09375 1.796875 12 2.5  C 12 3.375 13.296875 4.484375 13.90625 5.375  C 20.796875 15.71875 19.703125 30.921875 20.203125 38.375  L 20.203125 38.96875  C 20.203125 40.765625 21 41.859375 22.90625 41.859375  L 32.40625 41.859375  C 34.796875 41.859375 35.203125 40.28125 35.203125 38.671875  L 35.203125 5.5625  C 35.203125 4.984375 35.203125 4.484375 35.09375 3.875  z "
               id="Computer_Modern_Roman-228" />
            <path
               d="M 4.5 42.953125  L 4.5 41.859375  L 5.90625 41.859375  C 8.296875 41.859375 10.40625 41.359375 10.40625 37.859375  L 10.40625 5.203125  C 10.40625 1.703125 8.40625 1.203125 5.90625 1.203125  L 4.5 1.203125  L 4.5 0  L 20.40625 0  L 20.40625 1.203125  L 19 1.203125  C 16.796875 1.203125 15 1.5 14.5 4.203125  L 14.5 4.90625  C 14.5 6.203125 15.703125 7.3125 16.40625 8.3125  C 20.796875 14.890625 25.5 21.390625 30.09375 27.875  L 33.296875 32.46875  C 33.90625 33.375 34.59375 34.171875 35.09375 35.171875  L 35.203125 5.203125  C 35.203125 1.609375 33 1.203125 30.703125 1.203125  L 29.296875 1.203125  L 29.296875 0  L 45.203125 0  L 45.203125 1.203125  L 43.796875 1.203125  C 41.296875 1.203125 39.296875 1.703125 39.296875 5.203125  L 39.296875 37.859375  C 39.296875 41.359375 41.40625 41.859375 43.796875 41.859375  L 45.203125 41.859375  L 45.203125 42.953125  L 29.296875 42.953125  L 29.296875 41.859375  L 30.703125 41.859375  C 32.90625 41.859375 34.703125 41.453125 35.203125 38.765625  L 35.203125 38.0625  C 35.203125 36.765625 34 35.65625 33.296875 34.65625  C 28.90625 28.078125 24.203125 21.578125 19.59375 15.09375  L 16.40625 10.484375  C 15.796875 9.59375 15.09375 8.796875 14.59375 7.796875  L 14.5 37.859375  C 14.5 41.15625 16.40625 41.859375 19 41.859375  L 20.40625 41.859375  L 20.40625 42.953125  L 15.59375 42.953125  z "
               id="Computer_Modern_Roman-232" />
            <path
               d="M 4.5 42.953125  L 4.5 41.859375  L 5.90625 41.859375  C 8.296875 41.859375 10.40625 41.359375 10.40625 37.859375  L 10.40625 5.203125  C 10.40625 1.703125 8.40625 1.203125 5.90625 1.203125  L 4.5 1.203125  L 4.5 0  L 20.40625 0  L 20.40625 1.203125  L 19.203125 1.203125  C 17 1.203125 14.90625 1.40625 14.5 4.15625  L 14.5 22.8125  L 35.203125 22.8125  L 35.203125 4.15625  C 34.796875 1.40625 32.703125 1.203125 30.5 1.203125  L 29.296875 1.203125  L 29.296875 0  L 45.203125 0  L 45.203125 1.203125  L 43.796875 1.203125  C 41.296875 1.203125 39.296875 1.703125 39.296875 5.203125  L 39.296875 37.859375  C 39.296875 41.359375 41.40625 41.859375 43.796875 41.859375  L 45.203125 41.859375  L 45.203125 42.953125  L 29.296875 42.953125  L 29.296875 41.859375  L 30.59375 41.859375  C 33.5 41.859375 35.203125 41.140625 35.203125 37.703125  L 35.203125 24  L 14.5 24  L 14.5 37.703125  C 14.5 41.140625 16.203125 41.859375 19.09375 41.859375  L 20.40625 41.859375  L 20.40625 42.953125  L 15.59375 42.953125  z "
               id="Computer_Modern_Roman-237" />
            <path
               d="M 4.5 42.953125  L 4.5 41.859375  L 5.90625 41.859375  C 8.296875 41.859375 10.40625 41.359375 10.40625 37.859375  L 10.40625 5.203125  C 10.40625 1.703125 8.40625 1.203125 5.90625 1.203125  L 4.5 1.203125  L 4.5 0  L 34 0  C 38.59375 0 43 -0.5 44.703125 -7.109375  C 45.296875 -9.984375 45.5 -13.03125 45.703125 -16  L 47 -16  L 45.703125 1.203125  L 44.296875 1.203125  C 41.796875 1.203125 39.296875 1.5 39.296875 5.203125  L 39.296875 37.953125  C 39.296875 41.359375 41.40625 41.859375 43.796875 41.859375  L 45.203125 41.859375  L 45.203125 42.953125  L 29.296875 42.953125  L 29.296875 41.859375  L 30.703125 41.859375  C 33.09375 41.859375 35.203125 41.359375 35.203125 37.875  L 35.203125 4.390625  C 35.203125 2.40625 34.40625 1.203125 32.203125 1.203125  C 31.40625 1.203125 30.59375 1.203125 30 1.203125  L 16.90625 1.203125  C 15.09375 1.203125 14.59375 2.609375 14.5 3.90625  L 14.5 37.5625  C 14.5 41.453125 16.59375 41.859375 19.203125 41.859375  L 20.40625 41.859375  L 20.40625 42.953125  L 15.703125 42.953125  z "
               id="Computer_Modern_Roman-246" />
            <path
               d="M 4.5 43  L 4.5 42  L 5.90625 42  C 8.296875 42 10.40625 41.5 10.40625 37.96875  L 10.40625 5.03125  C 10.40625 1.5 8.40625 1 5.90625 1  L 4.5 1  L 4.5 0  L 27.296875 0  C 33.59375 0 41.796875 3.9375 41.796875 11.875  C 41.796875 16.109375 38.796875 19.828125 35.203125 21.84375  C 31.296875 23.953125 27.203125 23.953125 22.90625 23.953125  L 14.5 23.953125  L 14.5 37.796875  C 14.5 41.28125 16.203125 42 19.09375 42  L 20.40625 42  L 20.40625 43  L 15.59375 43  z M 14.5 22.859375  L 24 22.859375  C 30.40625 22.859375 36.703125 18.640625 36.703125 11.921875  L 36.703125 11.53125  C 36.703125 5.109375 30.203125 1 24.296875 1  L 16.90625 1  C 14.5 1 14.5 3.09375 14.5 5.515625  z M 44.296875 43  L 44.296875 42  L 45.703125 42  C 48.09375 42 50.203125 41.5 50.203125 38.0625  L 50.203125 4.9375  C 50.203125 1.5 48.203125 1 45.703125 1  L 44.296875 1  L 44.296875 0  L 60.203125 0  L 60.203125 1  L 58.796875 1  C 56.296875 1 54.296875 1.5 54.296875 5.03125  L 54.296875 37.96875  C 54.296875 41.5 56.40625 42 58.796875 42  L 60.203125 42  L 60.203125 43  z "
               id="Computer_Modern_Roman-251" />
          </defs>
          <g
             transform="translate(17.660772 176.725466)rotate(-90)scale(0.14 -0.14)"
             id="g4401">
            <use
               transform="scale(0.996264)"
               xlink:href="#CMMI12-80"
               id="use4369" />
            <use
               transform="translate(76.425821 0)scale(0.996264)"
               xlink:href="#CMR17-40"
               id="use4371" />
            <use
               transform="translate(111.706589 0)scale(0.996264)"
               xlink:href="#CMMI12-116"
               id="use4373" />
            <use
               transform="translate(146.932919 0)scale(0.996264)"
               xlink:href="#CMR17-41"
               id="use4375" />
            <use
               transform="translate(182.213687 0)scale(0.996264)"
               xlink:href="#CMMI12-59"
               id="use4377" />
            <use
               transform="translate(219.951762 0)scale(0.356961)"
               xlink:href="#Computer_Modern_Roman-243"
               id="use4379" />
            <use
               transform="translate(235.924214 0)scale(0.356961)"
               xlink:href="#Computer_Modern_Roman-241"
               id="use4381" />
            <use
               transform="translate(250.119486 0)scale(0.356961)"
               xlink:href="#Computer_Modern_Roman-235"
               id="use4383" />
            <use
               transform="translate(267.869102 0)scale(0.356961)"
               xlink:href="#Computer_Modern_Roman-46"
               id="use4385" />
            <use
               transform="translate(287.373734 0)scale(0.356961)"
               xlink:href="#Computer_Modern_Roman-229"
               id="use4387" />
            <use
               transform="translate(301.569006 0)scale(0.356961)"
               xlink:href="#Computer_Modern_Roman-228"
               id="use4389" />
            <use
               transform="translate(319.318623 0)scale(0.356961)"
               xlink:href="#Computer_Modern_Roman-232"
               id="use4391" />
            <use
               transform="translate(337.068239 0)scale(0.356961)"
               xlink:href="#Computer_Modern_Roman-237"
               id="use4393" />
            <use
               transform="translate(354.817855 0)scale(0.356961)"
               xlink:href="#Computer_Modern_Roman-232"
               id="use4395" />
            <use
               transform="translate(372.567472 0)scale(0.356961)"
               xlink:href="#Computer_Modern_Roman-246"
               id="use4397" />
            <use
               transform="translate(390.317088 0)scale(0.356961)"
               xlink:href="#Computer_Modern_Roman-251"
               id="use4399" />
          </g>
        </g>
      </g>
      <g
         id="line2d_12">
        <path
           clip-path="url(#p3689e3a5ea)"
           d="M 67.291219 218.88  L 99.974562 218.807526  L 102.017271 218.372981  L 104.05998 216.855889  L 106.102689 208.189292  L 108.145398 183.016768  L 110.188107 136.203815  L 112.230816 78.195093  L 114.273525 38.498599  L 116.316234 22.948491  L 118.358943 17.28  L 120.401652 20.947002  L 122.444361 21.285777  L 124.48707 17.917355  L 128.572488 31.451501  L 130.615197 28.202211  L 132.657906 26.412394  L 134.700615 28.41135  L 136.743324 31.309926  L 138.786033 31.848274  L 140.828742 31.794315  L 142.871451 39.788136  L 144.91416 43.204369  L 146.956869 39.512053  L 148.999578 40.743628  L 151.042287 43.163395  L 153.084996 41.210888  L 155.127705 42.628555  L 157.170414 46.936667  L 159.213123 48.345159  L 161.255832 47.993222  L 163.298541 49.270678  L 165.341249 49.705927  L 167.383958 50.398498  L 169.426667 52.046934  L 171.469376 51.712074  L 173.512085 54.358057  L 175.554794 59.374171  L 177.597503 60.708084  L 179.640212 55.754042  L 181.682921 56.243675  L 183.72563 62.036026  L 185.768339 62.182456  L 187.811048 62.082492  L 189.853757 62.680698  L 191.896466 63.915816  L 193.939175 66.375458  L 195.981884 68.139925  L 198.024593 69.425813  L 200.067302 69.031131  L 202.110011 70.687929  L 204.15272 71.183761  L 206.195429 73.440536  L 208.238138 75.112426  L 210.280847 75.60531  L 212.323556 78.235447  L 214.366265 77.34332  L 216.408974 78.551538  L 218.451683 79.608597  L 220.494392 79.815203  L 222.537101 82.366094  L 224.57981 80.560848  L 226.622519 81.728101  L 228.665228 88.044018  L 230.707936 88.380472  L 232.750645 86.956162  L 234.793354 85.025593  L 236.836063 84.312517  L 238.878772 86.930015  L 240.921481 91.28213  L 242.96419 94.672864  L 247.049608 91.321599  L 249.092317 93.0782  L 251.135026 96.138697  L 253.177735 97.039752  L 255.220444 95.920878  L 257.263153 96.1041  L 259.305862 97.503911  L 261.348571 100.889622  L 263.39128 103.520282  L 265.433989 102.364685  L 267.476698 97.447242  L 269.519407 100.582344  L 271.562116 107.074956  L 273.604825 105.350497  L 275.647534 103.156423  L 277.690243 105.936134  L 279.732952 109.672232  L 281.775661 110.407381  L 283.81837 111.839202  L 285.861079 109.962912  L 287.903788 107.676412  L 289.946497 109.00214  L 294.031915 115.522643  L 296.074623 117.964802  L 298.117332 115.617364  L 300.160041 113.070051  L 302.20275 115.885236  L 304.245459 117.49911  L 306.288168 118.650208  L 308.330877 119.266748  L 310.373586 118.704025  L 312.416295 119.314879  L 314.459004 121.664301  L 316.501713 122.58936  L 318.544422 121.604434  L 320.587131 121.383993  L 322.62984 121.034005  L 326.715258 123.921837  L 328.757967 123.860616  L 330.800676 124.118443  L 332.843385 124.856072  L 334.886094 124.916515  L 336.928803 126.229869  L 338.971512 129.621382  L 343.05693 127.213563  L 345.099639 129.468549  L 347.142348 130.527193  L 349.185057 130.872576  L 351.227766 131.336629  L 353.270475 130.86797  L 355.313184 131.882629  L 357.355893 134.15819  L 359.398602 135.532253  L 361.44131 135.442608  L 363.484019 134.02347  L 365.526728 135.725281  L 367.569437 136.583706  L 369.612146 135.348765  L 371.654855 137.209856  L 371.654855 137.209856  "
           style="fill:none;stroke:#1f77b4;stroke-linecap:square;stroke-width:1.5;"
           id="path4405" />
      </g>
      <g
         id="patch_3">
        <path
           d="M 52.073037 228.96  L 52.073037 7.2  "
           style="fill:none;stroke:#000000;stroke-linecap:square;stroke-linejoin:miter;stroke-width:0.8;"
           id="path4408" />
      </g>
      <g
         id="patch_4">
        <path
           d="M 386.873037 228.96  L 386.873037 7.2  "
           style="fill:none;stroke:#000000;stroke-linecap:square;stroke-linejoin:miter;stroke-width:0.8;"
           id="path4411" />
      </g>
      <g
         id="patch_5">
        <path
           d="M 52.073037 228.96  L 386.873037 228.96  "
           style="fill:none;stroke:#000000;stroke-linecap:square;stroke-linejoin:miter;stroke-width:0.8;"
           id="path4414" />
      </g>
      <g
         id="patch_6">
        <path
           d="M 52.073037 7.2  L 386.873037 7.2  "
           style="fill:none;stroke:#000000;stroke-linecap:square;stroke-linejoin:miter;stroke-width:0.8;"
           id="path4417" />
      </g>
    </g>
  </g>
  <defs
     id="defs4425">
    <clipPath
       id="p3689e3a5ea">
      <rect
         height="221.76"
         width="334.8"
         x="52.073037"
         y="7.2"
         id="rect4422" />
    </clipPath>
  </defs>
</svg>
