<?xml version="1.0" encoding="UTF-8" standalone="no"?>
<!-- Created with Inkscape (http://www.inkscape.org/) -->

<svg
   xmlns:dc="http://purl.org/dc/elements/1.1/"
   xmlns:cc="http://creativecommons.org/ns#"
   xmlns:rdf="http://www.w3.org/1999/02/22-rdf-syntax-ns#"
   xmlns:svg="http://www.w3.org/2000/svg"
   xmlns="http://www.w3.org/2000/svg"
   xmlns:sodipodi="http://sodipodi.sourceforge.net/DTD/sodipodi-0.dtd"
   xmlns:inkscape="http://www.inkscape.org/namespaces/inkscape"
   version="1.1"
   id="svg834"
   xml:space="preserve"
   width="524.28186"
   height="361.75131"
   viewBox="0 0 524.28186 361.75131"
   sodipodi:docname="local_theta.svg"
   inkscape:version="0.92.5 (2060ec1f9f, 2020-04-08)"><metadata
     id="metadata840"><rdf:RDF><cc:Work
         rdf:about=""><dc:format>image/svg+xml</dc:format><dc:type
           rdf:resource="http://purl.org/dc/dcmitype/StillImage" /><dc:title></dc:title></cc:Work></rdf:RDF></metadata><defs
     id="defs838"><clipPath
       clipPathUnits="userSpaceOnUse"
       id="clipPath1058"><path
         d="m 51.21137,42.353474 h 334.8 V 264.11347 h -334.8 z"
         id="path1056"
         inkscape:connector-curvature="0" /></clipPath></defs><sodipodi:namedview
     pagecolor="#ffffff"
     bordercolor="#666666"
     borderopacity="1"
     objecttolerance="10"
     gridtolerance="10"
     guidetolerance="10"
     inkscape:pageopacity="0"
     inkscape:pageshadow="2"
     inkscape:window-width="1880"
     inkscape:window-height="1006"
     id="namedview836"
     showgrid="false"
     inkscape:zoom="1.1375218"
     inkscape:cx="262.14093"
     inkscape:cy="180.87566"
     inkscape:window-x="20"
     inkscape:window-y="37"
     inkscape:window-maximized="0"
     inkscape:current-layer="g842" /><g
     id="g842"
     inkscape:groupmode="layer"
     inkscape:label="example_impulse1d"
     transform="matrix(1.3333333,0,0,-1.3333333,0,361.7513)"><path
       d="m 51.21137,42.353474 h 334.8 V 264.11347 h -334.8 z"
       style="fill:#ffffff;fill-opacity:1;fill-rule:nonzero;stroke:none"
       id="path846"
       inkscape:connector-curvature="0" /><g
       id="g1052"><g
         id="g1054"
         clip-path="url(#clipPath1058)"><path
           d="m 66.429552,83.755468 1.202296,-0.837785 1.597989,-0.822493 5.083127,-2.460914 3.150321,-1.845578 1.719741,-1.246614 1.339267,-1.245932 1.217515,-1.441489 1.217515,-1.795691 1.324048,-2.36942 1.597989,-3.348142 4.504807,-9.736463 1.15664,-1.828474 0.989231,-1.168371 0.86748,-0.697018 0.791385,-0.364407 0.760947,-0.113203 0.776166,0.108481 0.852261,0.352426 0.974012,0.654468 1.232735,1.116842 1.932806,2.09899 2.8155,3.006528 1.64365,1.419891 1.58277,1.075375 1.93281,1.026908 2.76984,1.475344 1.32405,0.983616 1.21752,1.184409 1.24795,1.533826 1.41536,2.113761 2.02412,3.479515 2.40459,4.038403 1.27839,1.717931 1.05011,1.059967 0.9588,0.66219 0.92835,0.37248 0.97401,0.148836 1.24796,-0.05127 2.2524,-0.121583 0.94357,0.203821 0.83705,0.408679 0.83704,0.663331 0.8827,0.99538 0.98923,1.469783 1.18708,2.192824 1.70452,3.677474 2.69375,5.78225 1.29361,2.238793 1.11098,1.500707 1.03489,1.03867 1.03489,0.73118 1.17186,0.54903 2.06977,0.6613 1.5219,0.60987 1.2023,0.72613 1.18707,0.98522 1.29361,1.37482 1.58277,2.02725 2.73941,3.9443 3.22642,4.5113 2.64809,3.30533 2.6481,2.95792 2.23718,2.18298 2.00891,1.65536 2.34371,1.62471 2.84594,2.0018 1.4458,1.31187 1.30883,1.49386 1.30883,1.84268 1.40014,2.37112 1.62843,3.21875 2.34372,5.18711 3.66776,8.07829 2.05456,3.95014 2.20675,3.74452 4.99181,8.2774 2.16109,4.19366 4.88528,9.68976 1.26317,1.89335 1.05011,1.19303 0.91314,0.71666 0.83704,0.38182 0.79139,0.12064 0.8066,-0.10502 0.86748,-0.3442 1.00445,-0.64776 1.32405,-1.14166 4.38305,-3.99289 1.30883,-0.77884 1.26317,-0.49817 1.32405,-0.28341 1.49146,-0.0874 1.6893,0.12746 1.61321,0.33803 1.35448,0.50469 1.17186,0.67039 1.09577,0.88507 1.08054,1.16704 1.11098,1.54004 1.18708,2.03978 1.35449,2.79414 1.70452,4.07064 5.144,12.65772 1.38493,2.62645 1.21751,1.85106 1.1262,1.32075 1.08055,0.93606 1.11098,0.67294 1.26317,0.50002 4.3374,1.48287 1.03489,0.75319 1.00445,1.01002 1.05011,1.38451 1.14142,1.89473 1.30883,2.63099 1.71974,4.00391 3.74386,8.85724 1.33927,2.51996 1.15663,1.72048 1.06533,1.1961 1.03489,0.8342 1.09576,0.59751 1.36971,0.47835 3.25685,1.04353 1.40014,0.75462 1.59799,1.12977 4.36784,3.24092 1.3697,0.64486 1.40015,0.40997 1.75018,0.26226 4.73309,0.60622 1.85671,0.17857 1.09576,-0.11547 0.91314,-0.31528 0.85226,-0.52912 0.85226,-0.79663 0.89792,-1.15955 0.95879,-1.6175 1.08055,-2.28323 1.26317,-3.22119 1.64364,-4.85094 4.83963,-14.66885 1.4458,-3.47187 1.27839,-2.51795 1.20229,-1.89239 1.15664,-1.41934 1.18708,-1.10827 1.29361,-0.90061 1.73496,-0.91412 2.69375,-1.42112 1.38493,-1.01239 1.32405,-1.25237 1.41536,-1.65879 1.81105,-2.49722 3.40904,-4.75458 1.32405,-1.42582 1.14142,-0.91613 1.09577,-0.59912 1.15664,-0.37611 1.58277,-0.25422 1.99368,-0.35313 1.11098,-0.43539 1.01967,-0.64117 1.05011,-0.93141 1.18708,-1.36837 1.55233,-2.16264 3.25685,-4.61624 1.23274,-1.31452 1.09576,-0.85381 1.06533,-0.55082 1.15664,-0.34366 1.78061,-0.25905 1.70452,-0.32913 1.14142,-0.45073 1.09577,-0.67754 1.17186,-1.0002 1.41536,-1.52382 4.77875,-5.41491 1.26317,-0.94785 1.24795,-0.65939 1.40014,-0.48098 3.11989,-0.78989 v 0"
           style="fill:none;stroke:#1f77b4;stroke-width:1.5;stroke-linecap:square;stroke-linejoin:round;stroke-miterlimit:10;stroke-dasharray:none;stroke-opacity:1"
           id="path1060"
           inkscape:connector-curvature="0" /></g></g></g></svg>