<?xml version="1.0" encoding="UTF-8" standalone="no"?>
<!-- Created with Inkscape (http://www.inkscape.org/) -->

<svg
   xmlns:dc="http://purl.org/dc/elements/1.1/"
   xmlns:cc="http://creativecommons.org/ns#"
   xmlns:rdf="http://www.w3.org/1999/02/22-rdf-syntax-ns#"
   xmlns:svg="http://www.w3.org/2000/svg"
   xmlns="http://www.w3.org/2000/svg"
   xmlns:sodipodi="http://sodipodi.sourceforge.net/DTD/sodipodi-0.dtd"
   xmlns:inkscape="http://www.inkscape.org/namespaces/inkscape"
   width="48.19733mm"
   height="138.45219mm"
   viewBox="0 0 48.197331 138.45219"
   version="1.1"
   id="svg7395"
   inkscape:version="0.92.5 (2060ec1f9f, 2020-04-08)"
   sodipodi:docname="wave_front2.svg">
  <defs
     id="defs7389">
    <inkscape:path-effect
       effect="bspline"
       id="path-effect8739"
       is_visible="true"
       weight="33.333333"
       steps="2"
       helper_size="0"
       apply_no_weight="true"
       apply_with_weight="true"
       only_selected="false" />
    <inkscape:path-effect
       effect="bspline"
       id="path-effect8501"
       is_visible="true"
       weight="33.333333"
       steps="2"
       helper_size="0"
       apply_no_weight="true"
       apply_with_weight="true"
       only_selected="false" />
    <inkscape:path-effect
       effect="bspline"
       id="path-effect8497"
       is_visible="true"
       weight="33.333333"
       steps="2"
       helper_size="0"
       apply_no_weight="true"
       apply_with_weight="true"
       only_selected="false" />
    <inkscape:path-effect
       effect="bspline"
       id="path-effect8451"
       is_visible="true"
       weight="33.333333"
       steps="2"
       helper_size="0"
       apply_no_weight="true"
       apply_with_weight="true"
       only_selected="false" />
    <marker
       inkscape:stockid="Arrow1Sstart"
       orient="auto"
       refY="0"
       refX="0"
       id="marker7275"
       style="overflow:visible"
       inkscape:isstock="true">
      <path
         id="path7273"
         d="M 0,0 5,-5 -12.5,0 5,5 Z"
         style="fill:#000000;fill-opacity:1;fill-rule:evenodd;stroke:#000000;stroke-width:1.00000003pt;stroke-opacity:1"
         transform="matrix(0.2,0,0,0.2,1.2,0)"
         inkscape:connector-curvature="0" />
    </marker>
    <marker
       inkscape:stockid="Arrow1Send"
       orient="auto"
       refY="0"
       refX="0"
       id="marker7321"
       style="overflow:visible"
       inkscape:isstock="true">
      <path
         id="path7319"
         d="M 0,0 5,-5 -12.5,0 5,5 Z"
         style="fill:#000000;fill-opacity:1;fill-rule:evenodd;stroke:#000000;stroke-width:1.00000003pt;stroke-opacity:1"
         transform="matrix(-0.2,0,0,-0.2,-1.2,0)"
         inkscape:connector-curvature="0" />
    </marker>
    <inkscape:path-effect
       effect="bspline"
       id="path-effect7271"
       is_visible="true"
       weight="33.333333"
       steps="2"
       helper_size="0"
       apply_no_weight="true"
       apply_with_weight="true"
       only_selected="false" />
    <inkscape:path-effect
       effect="bspline"
       id="path-effect6814"
       is_visible="true"
       weight="33.333333"
       steps="2"
       helper_size="0"
       apply_no_weight="true"
       apply_with_weight="true"
       only_selected="false" />
    <inkscape:path-effect
       effect="bspline"
       id="path-effect6814-3"
       is_visible="true"
       weight="33.333333"
       steps="2"
       helper_size="0"
       apply_no_weight="true"
       apply_with_weight="true"
       only_selected="false" />
    <inkscape:path-effect
       effect="bspline"
       id="path-effect6822"
       is_visible="true"
       weight="33.333333"
       steps="2"
       helper_size="0"
       apply_no_weight="true"
       apply_with_weight="true"
       only_selected="false" />
    <marker
       inkscape:stockid="Arrow1Sstart"
       orient="auto"
       refY="0"
       refX="0"
       id="Arrow1Sstart"
       style="overflow:visible"
       inkscape:isstock="true">
      <path
         id="path4575"
         d="M 0,0 5,-5 -12.5,0 5,5 Z"
         style="fill:#000000;fill-opacity:1;fill-rule:evenodd;stroke:#000000;stroke-width:1.00000003pt;stroke-opacity:1"
         transform="matrix(0.2,0,0,0.2,1.2,0)"
         inkscape:connector-curvature="0" />
    </marker>
    <marker
       inkscape:stockid="Arrow1Send"
       orient="auto"
       refY="0"
       refX="0"
       id="Arrow1Send"
       style="overflow:visible"
       inkscape:isstock="true">
      <path
         id="path4578"
         d="M 0,0 5,-5 -12.5,0 5,5 Z"
         style="fill:#000000;fill-opacity:1;fill-rule:evenodd;stroke:#000000;stroke-width:1.00000003pt;stroke-opacity:1"
         transform="matrix(-0.2,0,0,-0.2,-1.2,0)"
         inkscape:connector-curvature="0" />
    </marker>
    <inkscape:path-effect
       effect="bspline"
       id="path-effect5913"
       is_visible="true"
       weight="33.333333"
       steps="2"
       helper_size="0"
       apply_no_weight="true"
       apply_with_weight="true"
       only_selected="false" />
    <inkscape:path-effect
       effect="bspline"
       id="path-effect8451-3"
       is_visible="true"
       weight="33.333333"
       steps="2"
       helper_size="0"
       apply_no_weight="true"
       apply_with_weight="true"
       only_selected="false" />
    <inkscape:path-effect
       effect="bspline"
       id="path-effect6814-3-7"
       is_visible="true"
       weight="33.333333"
       steps="2"
       helper_size="0"
       apply_no_weight="true"
       apply_with_weight="true"
       only_selected="false" />
  </defs>
  <sodipodi:namedview
     id="base"
     pagecolor="#ffffff"
     bordercolor="#666666"
     borderopacity="1.0"
     inkscape:pageopacity="0.0"
     inkscape:pageshadow="2"
     inkscape:zoom="1.4142136"
     inkscape:cx="74.335306"
     inkscape:cy="161.23286"
     inkscape:document-units="mm"
     inkscape:current-layer="layer1"
     showgrid="true"
     inkscape:window-width="630"
     inkscape:window-height="1006"
     inkscape:window-x="645"
     inkscape:window-y="37"
     inkscape:window-maximized="0">
    <inkscape:grid
       type="xygrid"
       id="grid8447"
       originx="-4.3453698"
       originy="12.353485" />
  </sodipodi:namedview>
  <metadata
     id="metadata7392">
    <rdf:RDF>
      <cc:Work
         rdf:about="">
        <dc:format>image/svg+xml</dc:format>
        <dc:type
           rdf:resource="http://purl.org/dc/dcmitype/StillImage" />
        <dc:title></dc:title>
      </cc:Work>
    </rdf:RDF>
  </metadata>
  <g
     inkscape:label="Layer 1"
     inkscape:groupmode="layer"
     id="layer1"
     transform="translate(-60.449871,-109.2185)">
    <path
       style="display:inline;fill:none;stroke:#000000;stroke-width:0.35831693px;stroke-linecap:butt;stroke-linejoin:miter;stroke-opacity:1"
       d="m 60.449871,159.75753 c 0.240302,0 0.478112,0 0.776328,-0.59651 0.298216,-0.59652 0.657067,-1.79269 0.955737,-2.38967 0.298671,-0.59699 0.537632,-0.59699 0.835748,-8.1e-4 0.298116,0.59619 0.65697,1.79237 0.955805,2.38968 0.298835,0.59731 0.537665,0.59731 0.83588,8e-4 0.298215,-0.59652 0.657066,-1.79269 1.015434,-2.38967 0.358369,-0.59699 0.716814,-0.59699 1.015086,-5.3e-4 0.298272,0.59646 0.537388,1.79204 0.776501,2.38938 0.239112,0.59733 0.477933,0.59733 0.776147,8.2e-4 0.298215,-0.59652 0.657066,-1.79269 0.955738,-2.38967 0.298672,-0.59699 0.537633,-0.59699 0.835748,-8.1e-4 0.298116,0.59619 0.65697,1.79237 0.961671,2.38968 0.3047,0.59731 0.531799,0.59731 0.830013,8e-4 0.298214,-0.59652 0.657065,-1.79269 0.955737,-2.38968 0.298672,-0.59698 0.537633,-0.59698 0.835748,-8e-4 0.298116,0.59619 0.65697,1.79237 0.955806,2.38968 0.298836,0.59731 0.537665,0.59731 0.83588,8e-4 0.298214,-0.59652 0.657065,-1.79269 0.955737,-2.38967 0.298671,-0.59699 0.537632,-0.59699 0.836041,1.7e-4 0.298409,0.59717 0.656676,1.79139 0.955511,2.3887 0.298836,0.59731 0.537665,0.59731 0.83588,8e-4 0.298215,-0.59652 0.657066,-1.79269 0.955737,-2.38967 0.298671,-0.59699 0.537633,-0.59699 0.835749,-8.1e-4 0.298115,0.59619 0.656969,1.79237 0.955804,2.38968 0.298835,0.59731 0.537664,0.59731 0.835879,8e-4 0.298215,-0.59652 0.657067,-1.79269 0.955737,-2.38967 0.29867,-0.59699 0.537634,-0.59699 0.835749,-8.1e-4 0.298115,0.59619 0.656969,1.79237 0.955805,2.38968 0.298835,0.59731 0.537663,0.59731 0.835878,8e-4 0.298216,-0.59652 0.657068,-1.79269 0.955739,-2.38967 0.298672,-0.59699 0.537633,-0.59699 0.835748,-8.1e-4 0.298115,0.59619 0.656969,1.79237 0.955805,2.38968 0.298835,0.59731 0.537663,0.59731 0.835877,8e-4 0.298215,-0.59652 0.657066,-1.79269 0.955738,-2.38968 0.298671,-0.59698 0.537632,-0.59698 0.835748,-8e-4 0.298117,0.59619 0.656971,1.79237 0.955805,2.38968 0.298834,0.59731 0.537665,0.59731 0.835396,0.002 0.297731,-0.59491 0.657549,-1.7943 0.956221,-2.39129 0.298671,-0.59698 0.537632,-0.59698 0.835748,-8e-4 0.298117,0.59619 0.656971,1.79237 0.955807,2.38968 0.298835,0.59731 0.537661,0.59731 0.835789,0.001 0.298128,-0.59623 0.657155,-1.79298 0.955826,-2.38997 0.298671,-0.59698 0.537632,-0.59698 0.837931,0.006 0.300298,0.60346 0.654786,1.78509 0.958962,2.3824 0.304175,0.59731 0.532325,0.59731 0.830535,8e-4 0.29822,-0.59652 0.65707,-1.79269 0.95574,-2.38967 0.29867,-0.59699 0.53763,-0.59699 0.83575,-8.1e-4 0.29812,0.59619 0.65697,1.79237 0.95581,2.38968 0.29883,0.59731 0.53766,0.59731 0.83587,8e-4 0.29822,-0.59652 0.65707,-1.79269 1.01526,-2.98666"
       id="path5911"
       inkscape:connector-curvature="0"
       inkscape:path-effect="#path-effect5913"
       inkscape:original-d="m 60.449871,159.75753 c 0.240302,-0.006 0.478112,-2.6e-4 0.716635,0 0.358137,-1.19296 0.716992,-2.38913 1.074951,-3.58317 0.23915,-2.6e-4 0.478111,-2.6e-4 0.716633,0 0.358137,1.19224 0.716992,2.38842 1.074951,3.58317 0.239283,-2.6e-4 0.478113,-2.6e-4 0.716634,0 0.358137,-1.19296 0.716992,-2.38913 1.074951,-3.58317 0.358546,-2.6e-4 0.716991,-2.6e-4 1.07495,0 0.238998,1.19284 0.478113,2.38842 0.716635,3.58317 0.239291,-2.6e-4 0.478112,-2.6e-4 0.716632,0 0.358139,-1.19296 0.716992,-2.38913 1.074951,-3.58317 0.239153,-2.6e-4 0.478114,-2.6e-4 0.716634,0 0.358139,1.19224 0.716992,2.38842 1.074952,3.58317 0.251014,-0.006 0.478113,-2.6e-4 0.716632,0 0.358139,-1.19296 0.716994,-2.38913 1.074951,-3.58317 0.239153,-2.6e-4 0.478114,-2.6e-4 0.716634,0 0.358139,1.19224 0.716992,2.38842 1.074952,3.58317 0.239285,-2.6e-4 0.478114,-2.6e-4 0.716635,0 0.358137,-1.19296 0.716991,-2.38913 1.07495,-3.58317 0.239152,-2.6e-4 0.478113,-2.6e-4 0.716633,0 0.34749,1.19757 0.716994,2.38842 1.074951,3.58317 0.239285,-2.6e-4 0.478114,-2.6e-4 0.716635,0 0.358137,-1.19296 0.716992,-2.38913 1.074951,-3.58317 0.239151,-2.6e-4 0.478113,-2.6e-4 0.716634,0 0.358138,1.19224 0.716992,2.38842 1.074951,3.58317 0.239283,-2.6e-4 0.478112,-2.6e-4 0.716633,0 0.358137,-1.19296 0.716992,-2.38913 1.074952,-3.58317 0.239149,-2.6e-4 0.478113,-2.6e-4 0.716632,0 0.35814,1.19224 0.716992,2.38842 1.074952,3.58317 0.239284,-2.6e-4 0.478112,-2.6e-4 0.716634,0 0.358138,-1.19296 0.716992,-2.38913 1.074952,-3.58317 0.239152,-2.6e-4 0.478113,-2.6e-4 0.716632,0 0.358137,1.19224 0.716992,2.38842 1.074952,3.58317 0.239284,-2.6e-4 0.478112,-2.6e-4 0.716632,0 0.35814,-1.19296 0.716994,-2.38913 1.074951,-3.58317 0.239152,-2.6e-4 0.478113,-2.6e-4 0.716635,0 0.358137,1.19224 0.716992,2.38842 1.074952,3.58317 0.239281,-2.6e-4 0.478112,-2.6e-4 0.716632,0 0.367035,-1.18678 0.716994,-2.38913 1.074951,-3.58317 0.239152,-2.6e-4 0.478113,-2.6e-4 0.716635,0 0.358137,1.19224 0.716992,2.38842 1.074952,3.58317 0.239284,-2.6e-4 0.47811,-2.6e-4 0.716632,0 0.364088,-1.19054 0.716994,-2.38913 1.074952,-3.58317 0.239151,-2.6e-4 0.478112,-2.6e-4 0.716634,0 0.362609,1.20676 0.716992,2.38842 1.074949,3.58317 0.249965,-0.001 0.478115,-2.6e-4 0.716635,0 0.35814,-1.19296 0.71699,-2.38913 1.07495,-3.58317 0.23915,-2.6e-4 0.47811,-2.6e-4 0.71664,0 0.35813,1.19224 0.71699,2.38842 1.07495,3.58317 0.23928,-2.6e-4 0.47811,-2.6e-4 0.71663,0 0.35814,-1.19296 0.71699,-2.38913 1.07495,-3.58317" />
    <path
       style="display:inline;fill:none;fill-opacity:1;stroke:#000000;stroke-width:0.27085376;stroke-miterlimit:4;stroke-dasharray:none;stroke-dashoffset:0;stroke-opacity:1"
       id="path5915"
       sodipodi:type="arc"
       sodipodi:cx="84.219978"
       sodipodi:cy="136.15668"
       sodipodi:rx="18.888069"
       sodipodi:ry="18.213169"
       sodipodi:start="0.71558499"
       sodipodi:end="2.3631758"
       d="m 98.474985,148.10559 a 18.888069,18.213169 0 0 1 -13.661718,6.25527 18.888069,18.213169 0 0 1 -14.042086,-5.41575"
       sodipodi:open="true" />
    <path
       style="display:inline;fill:none;fill-opacity:1;stroke:#000000;stroke-width:0.27085376;stroke-miterlimit:4;stroke-dasharray:none;stroke-dashoffset:0;stroke-opacity:1"
       id="path5915-7"
       sodipodi:type="arc"
       sodipodi:cx="84.092644"
       sodipodi:cy="139.30002"
       sodipodi:rx="21.190245"
       sodipodi:ry="18.213169"
       sodipodi:start="0.6562438"
       sodipodi:end="2.4294983"
       d="m 100.88146,150.4127 a 21.190245,18.213169 0 0 1 -16.19715,7.09339 21.190245,18.213169 0 0 1 -16.632576,-6.30521"
       sodipodi:open="true" />
    <path
       style="display:inline;fill:none;stroke:#000000;stroke-width:0.14433758;stroke-linecap:butt;stroke-linejoin:miter;stroke-miterlimit:4;stroke-dasharray:none;stroke-opacity:1;marker-start:url(#Arrow1Sstart);marker-end:url(#Arrow1Send)"
       d="m 70.656585,148.00471 -2.645835,2.64584"
       id="path5932"
       inkscape:connector-curvature="0" />
    <text
       xml:space="preserve"
       style="font-style:normal;font-variant:normal;font-weight:normal;font-stretch:normal;font-size:2.86653543px;line-height:1.25;font-family:sans-serif;-inkscape-font-specification:'sans-serif, Normal';font-variant-ligatures:normal;font-variant-caps:normal;font-variant-numeric:normal;text-align:start;letter-spacing:0px;word-spacing:0px;writing-mode:lr-tb;text-anchor:start;display:inline;fill:#000000;fill-opacity:1;stroke:none;stroke-width:0.35831693"
       x="-66.137497"
       y="151.28313"
       id="text5988"
       transform="rotate(-46.872171)"><tspan
         sodipodi:role="line"
         id="tspan5986"
         x="-66.137497"
         y="151.28313"
         style="stroke-width:0.35831693">$c \tau$</tspan></text>
    <g
       style="display:inline"
       id="g6043"
       transform="matrix(0.02141258,-0.02141258,0.02141258,0.02141258,75.402393,110.87832)">
      <path
         id="path5990"
         d="m 353.5,306.76 -44.778,45.502"
         inkscape:connector-curvature="0" />
      <path
         id="path5992"
         d="m 309.72,262.98 -46.966,46.24"
         inkscape:connector-curvature="0" />
      <path
         id="path5994"
         d="M 267.12,218.02 397.27,348.17 349.93,395.51 219.78,265.36 Z"
         inkscape:connector-curvature="0" />
      <path
         id="path5996"
         d="m 244.64,231.03 -14.2,14.2"
         inkscape:connector-curvature="0" />
      <path
         id="path5998"
         d="m 178.37,164.77 -14.2,14.2"
         inkscape:connector-curvature="0" />
      <g
         id="g6006"
         style="fill:none;stroke:#000000;stroke-width:16">
        <path
           id="path6000"
           d="m 12.721,285.46 c 9.814,66.54 50.27,100.88 112.41,112.41"
           inkscape:connector-curvature="0" />
        <path
           id="path6002"
           d="m 60.05,285.46 c 5.472,38.03 25,59.948 65.08,65.08"
           inkscape:connector-curvature="0" />
        <path
           id="path6004"
           d="m 95.55,285.46 c 5.632,20.687 16.601,27.37 29.581,29.581"
           inkscape:connector-curvature="0" />
      </g>
      <path
         id="path6008"
         d="m 145.24,240.49 -17.749,41.41 41.41,-17.749"
         inkscape:connector-curvature="0" />
      <path
         id="path6010"
         d="m 197.7,290.05 c -8.169,8.169 -32.01,-2.426 -53.25,-23.666 -21.241,-21.241 -31.834,-45.08 -23.666,-53.25 8.169,-8.169 32.01,2.426 53.25,23.666 21.241,21.241 31.834,45.08 23.666,53.25 z"
         inkscape:connector-curvature="0" />
      <path
         id="path6012"
         d="m 209.14,143.46 10.738,10.56 5.829,-5.829 35.498,35.498 -5.917,5.917 11.832,11.832 -63.07,62.21 -58.13,-58.13 z"
         inkscape:connector-curvature="0" />
      <path
         id="path6014"
         d="m 147.61,100.86 -45.87,45.87"
         inkscape:connector-curvature="0" />
      <path
         id="path6016"
         d="M 103.83,57.08 58.058,102.582"
         inkscape:connector-curvature="0" />
      <path
         id="path6018"
         d="M 61.23,12.12 191.38,142.27 144.04,189.61 13.89,59.46 Z"
         inkscape:connector-curvature="0" />
    </g>
    <text
       xml:space="preserve"
       style="font-style:normal;font-variant:normal;font-weight:normal;font-stretch:normal;font-size:2.11666656px;line-height:1.25;font-family:sans-serif;-inkscape-font-specification:'sans-serif, Normal';font-variant-ligatures:normal;font-variant-caps:normal;font-variant-numeric:normal;text-align:start;letter-spacing:0px;word-spacing:0px;writing-mode:lr-tb;text-anchor:start;display:inline;fill:#000000;fill-opacity:1;stroke:none;stroke-width:0.26458332"
       x="84.403549"
       y="136.13222"
       id="text6826"><tspan
         sodipodi:role="line"
         id="tspan6824"
         x="84.403549"
         y="136.13222"
         style="stroke-width:0.26458332">$R_0$</tspan></text>
    <path
       style="display:inline;fill:none;stroke:#000000;stroke-width:0.15231937;stroke-linecap:butt;stroke-linejoin:miter;stroke-miterlimit:4;stroke-dasharray:0.15231938, 0.15231938;stroke-dashoffset:0;stroke-opacity:1"
       d="m 84.072822,156.1744 v 19.61156"
       id="path6635"
       inkscape:connector-curvature="0" />
    <path
       style="display:inline;fill:none;stroke:#000000;stroke-width:0.26458332px;stroke-linecap:butt;stroke-linejoin:miter;stroke-opacity:1"
       d="m 84.072822,156.1744 c 0.02584,-12.86586 0.05167,-25.73145 0.07751,-38.59678"
       id="path6820"
       inkscape:connector-curvature="0"
       inkscape:path-effect="#path-effect6822"
       inkscape:original-d="m 84.072822,156.1744 c 0.0261,-12.86586 0.05194,-25.73145 0.07751,-38.59678"
       sodipodi:nodetypes="cc" />
    <path
       style="display:inline;fill:none;stroke:#000000;stroke-width:0.26458332px;stroke-linecap:butt;stroke-linejoin:miter;stroke-opacity:1"
       d="m 68.114105,223.67559 c 1.940543,0 3.880821,0 5.026647,0 1.145826,0 1.500007,0 1.764406,-0.88143 0.264399,-0.88142 0.44092,-2.64663 0.74956,-6.65897 0.30864,-4.01233 0.749685,-10.27516 1.014267,-14.0234 0.264581,-3.74824 0.352779,-4.98301 0.44097,-5.99716 0.08819,-1.01415 0.176404,-1.80808 0.440907,-2.02847 0.264502,-0.2204 0.705638,0.13251 1.146568,0.57344 0.44093,0.44093 0.881932,0.97013 1.631615,1.80801 0.749684,0.83788 1.807964,1.98436 2.998611,3.13091 1.190646,1.14654 2.513552,2.29306 4.374333,3.84355 1.86078,1.55049 4.224645,3.4766 7.793862,5.45983 3.569216,1.98324 8.337129,4.01402 13.099509,6.04244"
       id="path6812-2"
       inkscape:connector-curvature="0"
       inkscape:original-d="m 68.114105,223.67559 c 1.940543,-2.6e-4 3.880821,-2.6e-4 5.820834,0 0.351639,0.001 0.70582,-2.6e-4 1.058333,0 0.176521,-1.76283 0.353042,-3.52804 0.529167,-5.29167 0.441164,-6.26104 0.882209,-12.52387 1.322916,-18.78541 0.08845,-1.23494 0.176654,-2.46971 0.264584,-3.70417 0.08844,-0.79383 0.176653,-1.58776 0.264583,-2.38125 0.441076,0.35238 0.882209,0.70529 1.322918,1.05833 0.441203,0.52887 0.882208,1.05807 1.322914,1.5875 1.058651,1.14632 2.116934,2.29279 3.175,3.43959 1.323194,1.14627 2.646098,2.29279 3.96875,3.43958 2.392503,1.96203 4.762765,3.88029 7.14375,5.82083 4.751681,2.03921 9.525266,4.05668 14.287506,6.08542"
       inkscape:path-effect="#path-effect6814-3"
       transform="translate(0,23.812509)" />
    <text
       xml:space="preserve"
       style="font-style:normal;font-variant:normal;font-weight:normal;font-stretch:normal;font-size:2.11666656px;line-height:1.25;font-family:sans-serif;-inkscape-font-specification:'sans-serif, Normal';font-variant-ligatures:normal;font-variant-caps:normal;font-variant-numeric:normal;text-align:start;letter-spacing:0px;word-spacing:0px;writing-mode:lr-tb;text-anchor:start;display:inline;fill:#000000;fill-opacity:1;stroke:none;stroke-width:0.26458332"
       x="71.133476"
       y="233.14201"
       id="text7387"><tspan
         sodipodi:role="line"
         id="tspan7385"
         x="71.133476"
         y="233.14201"
         style="stroke-width:0.26458332">$t$</tspan></text>
    <text
       xml:space="preserve"
       style="font-style:normal;font-variant:normal;font-weight:normal;font-stretch:normal;font-size:2.11666656px;line-height:1.25;font-family:sans-serif;-inkscape-font-specification:'sans-serif, Normal';font-variant-ligatures:normal;font-variant-caps:normal;font-variant-numeric:normal;text-align:start;letter-spacing:0px;word-spacing:0px;writing-mode:lr-tb;text-anchor:start;fill:#000000;fill-opacity:1;stroke:none;stroke-width:0.26458332"
       x="73.410538"
       y="206.43256"
       id="text7383"><tspan
         sodipodi:role="line"
         id="tspan7381"
         x="73.410538"
         y="206.43256"
         style="stroke-width:0.26458332">$t = t_0 + \tau/4 $ </tspan></text>
    <path
       style="fill:none;stroke:#000000;stroke-width:0.26458332;stroke-linecap:butt;stroke-linejoin:miter;stroke-miterlimit:4;stroke-dasharray:0.26458332, 0.26458332;stroke-dashoffset:0;stroke-opacity:1"
       d="m 91.294085,156.20679 c 0,7.40807 0,14.8164 0,22.225"
       id="path8449"
       inkscape:connector-curvature="0"
       inkscape:path-effect="#path-effect8451"
       inkscape:original-d="m 91.294085,156.20679 c 2.64e-4,7.40807 2.64e-4,14.8164 0,22.225"
       transform="matrix(1,0,0,1.1785715,0,-27.894087)" />
    <path
       style="fill:none;stroke:#000000;stroke-width:0.26499999;stroke-linecap:butt;stroke-linejoin:miter;stroke-miterlimit:4;stroke-dasharray:0.26499999, 0.26499999;stroke-dashoffset:0;stroke-opacity:1"
       d="m 77.006585,156.20679 c 0,7.40807 0,14.8164 0,22.225"
       id="path8449-9"
       inkscape:connector-curvature="0"
       inkscape:path-effect="#path-effect8451-3"
       inkscape:original-d="m 77.006585,156.20679 c 2.64e-4,7.40807 2.64e-4,14.8164 0,22.225"
       transform="matrix(1,0,0,1.1785715,0,-27.894087)" />
    <path
       style="fill:none;stroke:#000000;stroke-width:0.26458332px;stroke-linecap:butt;stroke-linejoin:miter;stroke-opacity:1"
       d="m 84.150335,117.57762 c 2.38531,12.98669 4.762463,25.92897 7.14375,38.89375"
       id="path8495"
       inkscape:connector-curvature="0"
       inkscape:path-effect="#path-effect8497"
       inkscape:original-d="m 84.150335,117.57762 c 2.385613,12.98663 4.762767,25.92891 7.14375,38.89375"
       sodipodi:nodetypes="cc" />
    <path
       style="fill:none;stroke:#000000;stroke-width:0.26458332px;stroke-linecap:butt;stroke-linejoin:miter;stroke-opacity:1"
       d="m 77.006585,156.47137 c 2.381306,-12.96489 4.762555,-25.92947 7.14375,-38.89375"
       id="path8499"
       inkscape:connector-curvature="0"
       inkscape:path-effect="#path-effect8501"
       inkscape:original-d="m 77.006585,156.47137 c 2.381514,-12.96485 4.762765,-25.92943 7.14375,-38.89375"
       sodipodi:nodetypes="cc" />
    <circle
       style="display:inline;fill:#81807e;fill-opacity:1;stroke:#000000;stroke-width:0.147;stroke-miterlimit:4;stroke-dasharray:none;stroke-dashoffset:0;stroke-opacity:1"
       id="path6637"
       cx="84.101189"
       cy="182.44923"
       r="7.2322268" />
    <path
       style="display:inline;fill:none;stroke:#ff0000;stroke-width:0.36500001;stroke-linecap:butt;stroke-linejoin:miter;stroke-miterlimit:4;stroke-dasharray:none;stroke-opacity:1"
       d="m 68.010752,223.67554 c 1.940543,0 3.880821,0 5.026647,0 1.145826,0 1.500007,0 1.764406,-0.88143 0.264399,-0.88142 0.44092,-2.64663 0.661382,-5.11582 0.220462,-2.46918 0.485088,-5.6447 0.749648,-8.81942"
       id="path6812-2-5"
       inkscape:connector-curvature="0"
       inkscape:original-d="m 68.010752,223.67554 c 1.940543,-2.5e-4 3.880821,-2.5e-4 5.820834,0 0.351639,10e-4 0.70582,-2.5e-4 1.058333,0 0.176521,-1.76283 0.353042,-3.52804 0.529167,-5.29167 0.264804,-3.17474 0.529431,-6.35026 0.793749,-9.525"
       inkscape:path-effect="#path-effect6814-3-7"
       sodipodi:nodetypes="ccccc"
       transform="translate(0,23.812509)" />
    <path
       style="fill:none;stroke:#000000;stroke-width:0.26458332px;stroke-linecap:butt;stroke-linejoin:miter;stroke-opacity:1"
       d="m 84.150335,123.92762 c 0.182286,0.27343 0.352736,0.5291 0.573425,0.57311 0.22069,0.044 0.485215,-0.13234 0.749492,-0.30852"
       id="path8737"
       inkscape:connector-curvature="0"
       inkscape:path-effect="#path-effect8739"
       inkscape:original-d="m 84.150335,123.92762 c 0.204213,0.25881 0.353041,0.5289 0.529167,0.79375 0.264908,-0.17669 0.529431,-0.35304 0.79375,-0.52916" />
    <text
       xml:space="preserve"
       style="font-style:normal;font-variant:normal;font-weight:normal;font-stretch:normal;font-size:2.11666656px;line-height:1.25;font-family:sans-serif;-inkscape-font-specification:'sans-serif, Normal';font-variant-ligatures:normal;font-variant-caps:normal;font-variant-numeric:normal;text-align:start;letter-spacing:0px;word-spacing:0px;writing-mode:lr-tb;text-anchor:start;fill:#000000;fill-opacity:1;stroke:none;stroke-width:0.26458332"
       x="85.638626"
       y="124.9198"
       id="text8743"><tspan
         sodipodi:role="line"
         id="tspan8741"
         x="85.638626"
         y="124.9198"
         style="font-size:1.41111112px;stroke-width:0.26458332">$\theta_1$</tspan></text>
    <text
       xml:space="preserve"
       style="font-style:normal;font-variant:normal;font-weight:normal;font-stretch:normal;font-size:2.11666656px;line-height:1.25;font-family:sans-serif;-inkscape-font-specification:'sans-serif, Normal';font-variant-ligatures:normal;font-variant-caps:normal;font-variant-numeric:normal;text-align:start;letter-spacing:0px;word-spacing:0px;writing-mode:lr-tb;text-anchor:start;fill:#000000;fill-opacity:1;stroke:none;stroke-width:0.26458332"
       x="72.422752"
       y="210.98671"
       id="text8743-2"><tspan
         sodipodi:role="line"
         id="tspan8741-9"
         x="72.422752"
         y="210.98671"
         style="font-size:1.41111112px;stroke-width:0.26458332">$\theta_1 = R_0 + \zeta + c\tau/4 $</tspan></text>
  </g>
</svg>
